<?xml version="1.0" encoding="utf-8"?>
<!-- Generator: Adobe Illustrator 18.0.0, SVG Export Plug-In . SVG Version: 6.00 Build 0)  -->
<!DOCTYPE svg PUBLIC "-//W3C//DTD SVG 1.1//EN" "http://www.w3.org/Graphics/SVG/1.1/DTD/svg11.dtd">
<svg version="1.1" id="Layer_1" xmlns="http://www.w3.org/2000/svg" xmlns:xlink="http://www.w3.org/1999/xlink" x="0px" y="0px"
	 viewBox="0 0 878.7401733 368.5039368" enable-background="new 0 0 878.7401733 368.5039368" xml:space="preserve">
<polyline fill="none" stroke="#FAB95E" stroke-width="12" stroke-miterlimit="10" points="808.3356934,176.2605133 
	341.8747864,176.2605133 210.8700714,86.0753479 82.3992462,86.0753479 "/>
<g>
	<path fill="#706F6F" d="M314.2816467,181.4948883c-1.7201538-7.5901337-0.4943542-14.6700897,3.6773987-21.2398987
		c4.1717529-6.5697784,10.0574341-10.689209,17.657074-12.3582611c7.6383362-1.6441956,14.7496338-0.3556366,21.3338623,3.8656769
		c6.6229553,4.2461548,10.8016663,10.1959229,12.5361633,17.8493042c1.6957397,7.6285706,0.4577332,14.7277374-3.7140198,21.2975311
		s-10.0452271,10.6699982-17.6204834,12.3006287c-7.6383362,1.6442108-14.7689819,0.3432312-21.3919373-3.9029236
		C320.1754761,195.0856323,316.0161133,189.1482849,314.2816467,181.4948883"/>
	<path d="M306.704071,190.3935699c-0.2958984-0.2724609-0.7045898-0.8793945-0.9941406-1.7368164
		c-0.6699219-1.984375,0.2011719-3.9418945,2.7333984-4.7944336c2.4179688-0.8139648,4.5595703,0.1289063,5.2963867,2.3125
		c0.2958984,0.8774414,0.2763672,1.5009766,0.2197266,1.7871094l-0.8867188,0.0541992
		c0.0668945-0.4057617,0.0385742-0.9433594-0.1591797-1.5288086c-0.5571289-1.6503906-2.0834961-2.3583984-4.1118164-1.675293
		c-1.8901367,0.6362305-2.7705078,2.0380859-2.1914063,3.7514648c0.1865234,0.5537109,0.5024414,1.0751953,0.8208008,1.3759766
		L306.704071,190.3935699z"/>
	<path d="M312.5185242,195.4775543c-1.8764648,1.0800781-3.3740234,0.3671875-4.0166016-0.7495117
		c-0.7197266-1.2514648-0.2680664-2.7954102,1.3344727-3.7192383c1.6977539-0.9785156,3.2753906-0.5400391,4.0117188,0.7397461
		C314.6112976,193.0756989,314.0688171,194.5835114,312.5185242,195.4775543z M310.3569031,191.839859
		c-1.1108398,0.640625-1.6137695,1.706543-1.1411133,2.5273438c0.4609375,0.8027344,1.6337891,0.9267578,2.7773438,0.2685547
		c0.8588867-0.4946289,1.7226563-1.5146484,1.1513672-2.5078125
		C312.5741882,191.1347809,311.320282,191.2841949,310.3569031,191.839859z"/>
	<path d="M316.1781921,195.4946442l-1.8237305,2.9243164c-0.2900391,0.4780273-0.5649414,0.9003906-0.8618164,1.296875
		l0.0219727,0.0258789c0.4472656-0.222168,0.9174805-0.4194336,1.4375-0.6303711l3.1845703-1.3476563l0.6630859,0.7675781
		l-5.8310547,2.2084961l-0.6040039-0.7006836l3.137207-5.328125L316.1781921,195.4946442z"/>
	<path d="M318.2128601,205.6699371l0.4121094-0.6152344l-0.0249023-0.0205078
		c-0.5239258,0.1640625-1.2294922,0.1152344-1.8168945-0.3681641c-0.8344727-0.6860352-0.7255859-1.6772461-0.184082-2.328125
		c0.9057617-1.0864258,2.2856445-0.9526367,3.8681641,0.3662109l0.0786133-0.0927734
		c0.3095703-0.371582,0.7729492-1.1176758-0.0693359-1.8110352c-0.3828125-0.3149414-0.8916016-0.5141602-1.3510742-0.5478516
		l0.277832-0.6791992c0.5424805,0.0385742,1.1674805,0.2871094,1.6865234,0.7143555
		c1.2592773,1.0366211,0.7841797,2.2270508,0.0332031,3.128418l-1.4003906,1.6806641
		c-0.3242188,0.390625-0.625,0.7856445-0.8286133,1.1342773L318.2128601,205.6699371z M320.0136414,203.2851715
		c-0.8022461-0.6914063-1.8613281-1.296875-2.5878906-0.4228516c-0.440918,0.5292969-0.3266602,1.0458984,0.0561523,1.3608398
		c0.5361328,0.4418945,1.1865234,0.3500977,1.6225586,0.0673828c0.0947266-0.0629883,0.1894531-0.1416016,0.2583008-0.2250977
		L320.0136414,203.2851715z"/>
	<path d="M331.4687195,203.5434723l-2.9711914,6.4155273c-0.2182617,0.472168-0.4580078,1.0141602-0.5952148,1.390625
		l-0.7851563-0.3764648l0.3867188-0.9404297l-0.0195313-0.0097656c-0.5429688,0.4638672-1.3378906,0.6323242-2.1225586,0.2558594
		c-1.1625977-0.5581055-1.5541992-2.0727539-0.8071289-3.6845703c0.8081055-1.7705078,2.3046875-2.3803711,3.4765625-1.8173828
		c0.7353516,0.3520508,1.0546875,0.9741211,1.0751953,1.5073242l0.0205078,0.0092773l1.4677734-3.1699219L331.4687195,203.5434723z
		 M328.4462585,207.7631989c0.0551758-0.1206055,0.1210938-0.2900391,0.1474609-0.425293
		c0.1552734-0.6757813-0.0878906-1.4091797-0.7436523-1.7231445c-0.9047852-0.434082-1.8466797,0.1865234-2.390625,1.359375
		c-0.4985352,1.074707-0.4321289,2.1918945,0.5112305,2.6450195c0.5864258,0.2807617,1.3212891,0.1108398,1.8154297-0.5371094
		c0.0913086-0.1171875,0.1616211-0.2436523,0.2333984-0.3974609L328.4462585,207.7631989z"/>
	<path d="M333.5776062,213.0927887l0.1049805-0.7348633l-0.0317383-0.0083008
		c-0.4003906,0.3691406-1.0546875,0.621582-1.7895508,0.4272461c-1.0439453-0.2758789-1.3730469-1.2255859-1.1660156-2.046875
		c0.3447266-1.371582,1.6425781-1.8295898,3.6323242-1.2905273l0.0292969-0.1171875
		c0.1191406-0.4692383,0.2143555-1.34375-0.8413086-1.6235352c-0.4785156-0.1259766-1.0209961-0.0947266-1.4487305,0.0668945
		l-0.0415039-0.7353516c0.503418-0.1923828,1.1708984-0.2285156,1.8212891-0.0566406
		c1.5776367,0.4165039,1.6630859,1.7021484,1.3759766,2.8398438l-0.5351563,2.1225586
		c-0.1235352,0.4921875-0.2246094,0.9785156-0.2573242,1.3823242L333.5776062,213.0927887z M334.1684265,210.1601715
		c-1.0170898-0.2939453-2.2280273-0.4013672-2.5068359,0.7006836c-0.1679688,0.668457,0.1577148,1.0922852,0.637207,1.21875
		c0.6708984,0.1777344,1.215332-0.1782227,1.4858398-0.6201172c0.0581055-0.0966797,0.1088867-0.2089844,0.1362305-0.3139648
		L334.1684265,210.1601715z"/>
	<path d="M340.1010437,205.9814606c0.4624023-0.0898438,1.0678711-0.1679688,1.8398438-0.1767578
		c0.9477539-0.0097656,1.6445313,0.2246094,2.090332,0.6557617c0.4116211,0.3823242,0.6601563,0.9731445,0.6665039,1.6982422
		c0.0083008,0.737793-0.1845703,1.3208008-0.5551758,1.7480469c-0.5009766,0.5981445-1.3256836,0.9091797-2.2626953,0.918457
		c-0.2861328,0.003418-0.5507813-0.0058594-0.7719727-0.0639648l0.0322266,3.265625l-0.9594727,0.0102539L340.1010437,205.9814606z
		 M341.0990906,209.902359c0.2104492,0.0581055,0.4755859,0.0800781,0.7949219,0.0761719
		c1.1567383-0.0117188,1.855957-0.6367188,1.8452148-1.7607422c-0.0097656-1.0766602-0.7104492-1.5898438-1.7685547-1.5786133
		c-0.4179688,0.0048828-0.7382813,0.0444336-0.9023438,0.0942383L341.0990906,209.902359z"/>
	<path d="M346.8222351,206.136734c0.0615234,0.3564453-0.137207,0.6777344-0.5185547,0.7299805
		c-0.3388672,0.0473633-0.6206055-0.2070313-0.671875-0.565918c-0.0517578-0.3710938,0.1577148-0.6933594,0.5068359-0.7412109
		C346.4989929,205.5097809,346.769989,205.7656403,346.8222351,206.136734z M346.8090515,213.702652l-0.8251953-5.7915039
		l0.9609375-0.1323242l0.8256836,5.7919922L346.8090515,213.702652z"/>
	<path d="M350.0976257,210.3730621c0.4082031,1.3803711,1.3759766,1.7363281,2.3134766,1.4887695
		c0.6699219-0.1772461,1.0395508-0.4125977,1.3447266-0.668457l0.3652344,0.6918945
		c-0.284668,0.2504883-0.796875,0.5854492-1.6171875,0.8027344c-1.5859375,0.4194336-2.8525391-0.4711914-3.3261719-2.171875
		c-0.4746094-1.7006836,0.0673828-3.2817383,1.5683594-3.6796875c1.6826172-0.4443359,2.5820313,1.0561523,2.8701172,2.0927734
		c0.0585938,0.2094727,0.0830078,0.378418,0.1020508,0.4858398L350.0976257,210.3730621z M352.6401062,208.9121246
		c-0.1704102-0.6547852-0.7094727-1.6005859-1.7631836-1.3217773c-0.9472656,0.2509766-1.0966797,1.315918-0.9731445,2.0463867
		L352.6401062,208.9121246z"/>
	<path d="M357.3007507,201.437027l3.1455078,6.3383789c0.2319336,0.4658203,0.5048828,0.9921875,0.7124023,1.3349609
		l-0.7851563,0.3774414l-0.4916992-0.8920898l-0.019043,0.0107422c0.0214844,0.7138672-0.3442383,1.4394531-1.1298828,1.815918
		c-1.1630859,0.5585938-2.5898438-0.0844727-3.3803711-1.6777344c-0.8759766-1.7397461-0.4145508-3.2890625,0.7583008-3.8520508
		c0.7358398-0.3525391,1.4213867-0.2124023,1.8496094,0.1054688l0.0200195-0.0092773l-1.5546875-3.1318359L357.3007507,201.437027z
		 M358.7001648,206.4394684c-0.0576172-0.1186523-0.1494141-0.2763672-0.237793-0.3808594
		c-0.4311523-0.5449219-1.1542969-0.8144531-1.8110352-0.4995117c-0.9047852,0.434082-1.0112305,1.5581055-0.4365234,2.7172852
		c0.5273438,1.0620117,1.4394531,1.7109375,2.3852539,1.2578125c0.5854492-0.2822266,0.9130859-0.9619141,0.7172852-1.7529297
		c-0.0351563-0.1450195-0.0898438-0.2792969-0.1650391-0.4311523L358.7001648,206.4394684z"/>
	<path d="M366.0351257,205.727066l-0.5063477-0.5410156l-0.0263672,0.0195313
		c0.0400391,0.5458984-0.168457,1.2202148-0.7758789,1.6787109c-0.859375,0.6513672-1.8027344,0.3178711-2.3129883-0.3569336
		c-0.8530273-1.1289063-0.4057617-2.4384766,1.2446289-3.671875l-0.0732422-0.0961914
		c-0.2919922-0.3862305-0.9135742-1.0078125-1.7832031-0.3491211c-0.3955078,0.2993164-0.7060547,0.746582-0.8442383,1.1845703
		l-0.5986328-0.4267578c0.1606445-0.5166016,0.546875-1.0664063,1.0825195-1.472168
		c1.3007813-0.9833984,2.3540039-0.2485352,3.0610352,0.6875l1.3193359,1.746582
		c0.3071289,0.4052734,0.6230469,0.7871094,0.9165039,1.0654297L366.0351257,205.727066z M364.1200867,203.4306793
		c-0.8583984,0.6191406-1.6918945,1.5078125-1.0063477,2.4145508c0.4160156,0.550293,0.9467773,0.5581055,1.3422852,0.2592773
		c0.5532227-0.4194336,0.6132813-1.0708008,0.4360352-1.5600586c-0.0380859-0.1064453-0.0932617-0.2158203-0.159668-0.3032227
		L364.1200867,203.4306793z"/>
	<path d="M365.6117859,194.0048981l5.2338867,4.7583008c0.3852539,0.3500977,0.8310547,0.7407227,1.1484375,0.9838867
		l-0.5786133,0.6508789l-0.7807617-0.6499023l-0.015625,0.015625c0.2866211,0.6621094,0.2216797,1.4814453-0.355957,2.1318359
		c-0.8574219,0.9633789-2.4013672,0.8994141-3.7163086-0.2963867c-1.4487305-1.3012695-1.6025391-2.9301758-0.7382813-3.9018555
		c0.5410156-0.6098633,1.2207031-0.7363281,1.7304688-0.6005859l0.0146484-0.0166016l-2.5844727-2.3505859L365.6117859,194.0048981z
		 M368.7528992,198.1709137c-0.0996094-0.090332-0.2412109-0.2041016-0.3608398-0.2685547
		c-0.5961914-0.3486328-1.3579102-0.3271484-1.8417969,0.2158203c-0.6655273,0.75-0.3457031,1.8457031,0.6118164,2.7158203
		c0.8774414,0.796875,1.953125,1.0610352,2.6484375,0.2783203c0.4316406-0.4858398,0.4780273-1.2480469,0.0043945-1.9165039
		c-0.0854492-0.1225586-0.1855469-0.2290039-0.3105469-0.3422852L368.7528992,198.1709137z"/>
	<path d="M371.6650085,195.4497223c1.2387695,0.7314453,2.1787109,0.3251953,2.6845703-0.5029297
		c0.3603516-0.5932617,0.4648438-1.0200195,0.5092773-1.4189453l0.7353516,0.2563477
		c-0.0327148,0.3803711-0.1713867,0.9794922-0.6132813,1.7041016c-0.8540039,1.4023438-2.3745117,1.621582-3.8808594,0.7011719
		c-1.5043945-0.9208984-2.1972656-2.4560547-1.3891602-3.7827148c0.90625-1.4868164,2.5800781-1.0048828,3.4975586-0.4438477
		c0.1860352,0.1137695,0.3183594,0.2202148,0.4052734,0.2871094L371.6650085,195.4497223z M372.4950867,192.6240387
		c-0.5722656-0.3632813-1.6074219-0.6860352-2.1743164,0.2460938c-0.5107422,0.8369141,0.1108398,1.7216797,0.699707,2.1723633
		L372.4950867,192.6240387z"/>
</g>
<g>
	<path fill="#706F6F" d="M491.8564453,191.904129c-4.2527466-6.2338715-5.6570129-13.1007385-4.2127686-20.600647
		c1.4442139-7.4998932,5.3104248-13.4179382,11.5985718-17.7541199c6.3320618-4.328064,13.2283325-5.8044739,20.6888428-4.4292145
		c7.5043945,1.3833466,13.4006958,5.217926,17.6888428,11.5037079c4.2443237,6.2777405,5.6443481,13.1665497,4.2001343,20.6664429
		c-1.4442139,7.4999084-5.3061523,13.3960114-11.5859375,17.688324c-6.3320313,4.3280792-13.2502441,5.8004456-20.7546387,4.417099
		C502.0189819,202.020462,496.1446533,198.1899261,491.8564453,191.904129"/>
	<path d="M481.1933289,188.8125153l-2.8242188,0.3222656l-0.3974609-0.9394531l9.0097656-0.9570313l0.4628906,1.0957031
		l-6.9833984,5.7509766l-0.4101563-0.9707031l2.1982422-1.8056641L481.1933289,188.8125153z M482.976532,190.7832184
		l2.0107422-1.6533203c0.4560547-0.3759766,0.8867188-0.6787109,1.3056641-0.9765625l-0.0087891-0.0214844
		c-0.5185547,0.0947266-1.0537109,0.1835938-1.5986328,0.2509766l-2.6054688,0.2802734L482.976532,190.7832184z"/>
	<path d="M485.6044617,193.8291168c0.5273438-0.3691406,0.953125-0.6806641,1.3544922-1.0039063l0.5068359,0.7246094
		l-0.8105469,0.6357422l0.0126953,0.0195313c0.6396484-0.1171875,1.4785156,0.0703125,1.9990234,0.8134766
		c0.4345703,0.6220703,0.6884766,1.8818359-1.0605469,3.1064453l-3.0449219,2.1328125l-0.5712891-0.8173828l2.9394531-2.0576172
		c0.8212891-0.5761719,1.3183594-1.3242188,0.7792969-2.0947266c-0.3769531-0.5390625-1.1015625-0.6542969-1.7148438-0.4316406
		c-0.1416016,0.0439453-0.3125,0.1357422-0.4716797,0.2470703l-3.0644531,2.1464844l-0.5722656-0.8164063L485.6044617,193.8291168z"
		/>
	<path d="M493.0068054,197.6797028l-1.2802734,1.2480469l0.9882813,1.0292969l-0.6152344,0.6025391l-0.9902344-1.0292969
		l-2.4023438,2.3427734c-0.5537109,0.5390625-0.7324219,0.9833984-0.3476563,1.3837891
		c0.1796875,0.1875,0.3417969,0.2998047,0.4550781,0.3623047l-0.5751953,0.6259766
		c-0.1982422-0.0761719-0.4570313-0.2519531-0.7236328-0.5302734c-0.3222656-0.3349609-0.4609375-0.7216797-0.4052734-1.1083984
		c0.0429688-0.4375,0.3681641-0.8974609,0.8925781-1.4091797l2.4316406-2.3701172l-0.5888672-0.6132813l0.6152344-0.6015625
		l0.5898438,0.6132813l1.0683594-1.0419922L493.0068054,197.6797028z"/>
	<path d="M495.8593445,206.3281403c-1.3691406,1.8515625-3.0947266,1.8222656-4.1591797,1.0322266
		c-1.1923828-0.8828125-1.3769531-2.5576172-0.2070313-4.140625c1.2382813-1.6757813,2.9306641-1.9433594,4.1494141-1.0390625
		C496.9081726,203.1181793,496.9911804,204.7968903,495.8593445,206.3281403z M492.3261414,203.7890778
		c-0.8105469,1.0966797-0.8671875,2.3359375-0.0849609,2.9160156c0.7646484,0.5664063,1.9423828,0.1748047,2.7763672-0.953125
		c0.6269531-0.8486328,1.0488281-2.2011719,0.1025391-2.9023438
		C494.172821,202.1484528,493.0292664,202.8379059,492.3261414,203.7890778z M498.3222351,200.996109l-2.2050781,0.65625
		l-0.5722656-0.4248047l1.8945313-0.8867188L498.3222351,200.996109z"/>
	<path d="M498.4491882,206.199234c0.2675781-0.5839844,0.4785156-1.0683594,0.6621094-1.5498047l0.8066406,0.359375
		l-0.3769531,0.9580078l0.0195313,0.0087891c0.4960938-0.4267578,1.3183594-0.6943359,2.1474609-0.3261719
		c0.6933594,0.3085938,1.5556641,1.2558594,0.6650391,3.1953125l-1.5517578,3.3789063l-0.9121094-0.4052734l1.4980469-3.2617188
		c0.4189453-0.9121094,0.4677734-1.8056641-0.3916016-2.1875c-0.6005859-0.2675781-1.2880859,0.0048828-1.7050781,0.5087891
		c-0.1005859,0.1103516-0.203125,0.2763672-0.2832031,0.4511719l-1.5625,3.4023438l-0.9121094-0.4052734L498.4491882,206.199234z"/>
	<path d="M503.4950867,213.0322418l1.7421875-5.9765625l0.9609375,0.2666016l-1.7421875,5.9775391L503.4950867,213.0322418z
		 M506.7968445,205.6738434c-0.0966797,0.3730469-0.4228516,0.6025391-0.8056641,0.4960938
		c-0.3388672-0.09375-0.4921875-0.4570313-0.3847656-0.8271484c0.1123047-0.3828125,0.4492188-0.609375,0.7988281-0.5126953
		C506.7646179,204.9306793,506.9081726,205.2910309,506.7968445,205.6738434z"/>
	<path d="M512.5028687,211.5127106c-0.3183594,2.2802734-1.8505554,3.0849609-3.164032,2.90625
		c-1.4726563-0.2001953-2.4365234-1.5771484-2.1630859-3.5263672c0.2871094-2.0634766,1.6464844-3.1123047,3.1523438-2.9072266
		C511.8896179,208.1972809,512.7665405,209.6269684,512.5028687,211.5127106z M508.1806335,210.9902496
		c-0.1884766,1.3505859,0.3535156,2.4619141,1.3193359,2.59375c0.9443359,0.1279297,1.7919922-0.7822266,1.9863281-2.1708984
		c0.1464844-1.0439453-0.1298828-2.4316406-1.2978516-2.5908203
		C509.0204773,208.6640778,508.3437195,209.8183746,508.1806335,210.9902496z"/>
	<path d="M523.8690796,213.2822418c-0.4052734,0.2509766-1.21875,0.6865234-2.2353516,0.8564453
		c-1.1396484,0.1904297-2.1328125,0.0175781-3.0009766-0.6582031c-0.765625-0.6025391-1.3544922-1.6767578-1.5732422-3.0087891
		c-0.4072266-2.5527344,0.828125-4.6767578,3.3544922-5.0986328c0.8720703-0.1464844,1.5888672-0.0449219,1.9414063,0.0791016
		l-0.0859375,0.9404297c-0.4365234-0.1367188-0.9667969-0.2167969-1.7265625-0.0898438
		c-1.8320313,0.3066406-2.8154297,1.8007813-2.4638672,3.9453125c0.3564453,2.1699219,1.7167969,3.2597656,3.4716797,2.9658203
		c0.6367188-0.1064453,1.0566406-0.28125,1.2587891-0.4453125l-0.4179688-2.5507813l-1.53125,0.2558594l-0.1464844-0.8876953
		l2.4824219-0.4150391L523.8690796,213.2822418z"/>
	<path d="M526.4921265,209.7363434c0.5869141,1.4140625,1.6152344,1.671875,2.5371094,1.2919922
		c0.6591797-0.2724609,1.0048828-0.5673828,1.2841797-0.8769531l0.4560547,0.6875
		c-0.2568359,0.3017578-0.7363281,0.7216797-1.5429688,1.0537109c-1.5595703,0.6425781-2.9580078-0.1445313-3.6513672-1.8886719
		c-0.6933594-1.7451172-0.3388672-3.4902344,1.1367188-4.0986328c1.6552734-0.6826172,2.7558594,0.7978516,3.1777344,1.8613281
		c0.0859375,0.2148438,0.1308594,0.390625,0.1621094,0.5029297L526.4921265,209.7363434z M528.8954468,207.871109
		c-0.2558594-0.6738281-0.9208984-1.6103516-1.9570313-1.1835938c-0.9316406,0.3847656-0.9511719,1.5332031-0.734375,2.2919922
		L528.8954468,207.871109z"/>
	<path d="M532.5995483,199.3896637l4.1083984,6.3056641c0.3007813,0.4638672,0.6542969,0.9853516,0.9150391,1.3232422
		l-0.7480469,0.4902344l-0.6279297-0.8808594l-0.0195313,0.0126953c0.1230469,0.75-0.1474609,1.5585938-0.8974609,2.0488281
		c-1.1083984,0.7265625-2.6552734,0.21875-3.6884766-1.3662109c-1.1396484-1.7285156-0.8876953-3.4169922,0.2304688-4.1503906
		c0.7021484-0.4589844,1.421875-0.3925781,1.9042969-0.1083984l0.0185547-0.0126953l-2.0292969-3.1152344L532.5995483,199.3896637z
		 M534.7352905,204.496109c-0.0771484-0.1191406-0.1923828-0.2744141-0.296875-0.3740234
		c-0.5175781-0.5224609-1.2949219-0.7207031-1.9199219-0.3105469c-0.8632813,0.5644531-0.8125,1.7626953-0.0615234,2.9160156
		c0.6884766,1.0566406,1.7109375,1.6318359,2.6123047,1.0419922c0.5595703-0.3671875,0.796875-1.1230469,0.4853516-1.9335938
		c-0.0556641-0.1474609-0.1308594-0.2832031-0.2285156-0.4345703L534.7352905,204.496109z"/>
	<path d="M538.4550171,202.5605621c1.0869141,1.078125,2.1494141,0.9316406,2.8681641,0.2402344
		c0.515625-0.4941406,0.7265625-0.8945313,0.8701172-1.2822266l0.6904297,0.4619141
		c-0.1279297,0.3720703-0.4169922,0.9355469-1.0458984,1.5400391c-1.21875,1.1708984-2.8271484,0.96875-4.1416016-0.3740234
		c-1.3134766-1.3427734-1.6435547-3.0751953-0.4931641-4.1826172c1.2919922-1.2412109,2.8857422-0.2929688,3.6875,0.5253906
		c0.1611328,0.1650391,0.2714844,0.3095703,0.3427734,0.4003906L538.4550171,202.5605621z M539.9979858,199.9541168
		c-0.4960938-0.5224609-1.4755859-1.1337891-2.2851563-0.3564453c-0.7265625,0.6992188-0.3076172,1.7597656,0.1835938,2.375
		L539.9979858,199.9541168z"/>
	<path d="M539.3319702,195.2656403c-0.6962891-0.4609375-0.9306641-0.9990234-0.6494141-1.3974609
		c0.1435547-0.203125,0.3496094-0.2939453,0.6367188-0.4101563c0.1992188-0.0820313,0.3759766-0.1523438,0.4541016-0.2626953
		c0.1044922-0.1484375,0.0673828-0.2978516-0.2705078-0.5771484l0.3007813-0.4248047
		c0.7197266,0.4755859,0.9267578,0.9394531,0.6201172,1.375c-0.1376953,0.1933594-0.3564453,0.3027344-0.6103516,0.4160156
		c-0.2568359,0.0966797-0.3925781,0.1533203-0.4697266,0.2646484c-0.1054688,0.1484375,0.0214844,0.3476563,0.3027344,0.5732422
		L539.3319702,195.2656403z M546.7821655,197.3642731l-0.6875-0.3857422l-0.0205078,0.0283203
		c0.2246094,0.5302734,0.2431641,1.2626953-0.2080078,1.9003906c-0.6416016,0.90625-1.6953125,0.859375-2.4326172,0.3417969
		c-1.2324219-0.8642578-1.2265625-2.2988281,0.0068359-4.0214844l-0.1054688-0.0732422
		c-0.4208984-0.2958984-1.2509766-0.7265625-1.8984375,0.1894531c-0.2949219,0.4160156-0.4541016,0.9541016-0.4443359,1.4316406
		l-0.7431641-0.2431641c-0.0117188-0.5625,0.1884766-1.2246094,0.5878906-1.7890625
		c0.9677734-1.3681641,2.2675781-0.9550781,3.2890625-0.2382813l1.90625,1.3369141
		c0.4423828,0.3105469,0.8876953,0.5947266,1.2744141,0.7832031L546.7821655,197.3642731z M544.0966187,195.6601715
		c-0.6494141,0.8730469-1.1835938,2.0068359-0.1923828,2.7011719c0.5996094,0.4208984,1.1318359,0.2685547,1.4267578-0.1464844
		c0.4121094-0.5830078,0.2529297-1.2490234-0.0888672-1.6816406c-0.0742188-0.09375-0.1660156-0.1855469-0.2607422-0.2529297
		L544.0966187,195.6601715z"/>
	<path d="M547.946228,188.1250153c2.1025391,0.9384766,2.453125,2.6328125,1.9199219,3.8457031
		c-0.5976563,1.3574219-2.1855469,1.9013672-3.9833984,1.0996094c-1.9023438-0.8486328-2.5341797-2.4453125-1.9228516-3.8349609
		C544.5927124,187.7949371,546.2079468,187.3496246,547.946228,188.1250153z M546.2538452,192.1328278
		c1.2451172,0.5546875,2.4619141,0.3417969,2.8544922-0.5498047c0.3837891-0.8701172-0.2578125-1.9375-1.5371094-2.5087891
		c-0.9628906-0.4296875-2.3720703-0.5498047-2.8457031,0.5283203
		C544.2509155,190.6806793,545.1737671,191.6504059,546.2538452,192.1328278z"/>
</g>
<path fill="none" stroke="#43B5E8" stroke-width="12" stroke-miterlimit="10" d="M388.3823547,125.125"/>
<g>
	<path fill="#706F6F" d="M408.1531982,195.2677002c-5.2275085-5.499649-7.7391357-12.0669708-7.5349121-19.7019806
		c0.2042542-7.6349945,3.0640564-14.082901,8.5794067-19.3437195c5.5601196-5.259613,12.1445313-7.7890167,19.7532043-7.5882111
		c7.6534729,0.2019958,14.1157227,3.0757141,19.3868103,8.62117c5.2263184,5.5443115,7.7373657,12.1339569,7.5331421,19.7689514
		c-0.2042542,7.6350098-3.063446,14.0605927-8.5776062,19.2767487c-5.5601196,5.259613-12.1669006,7.7884369-19.8203735,7.586441
		C419.8641968,203.6862946,413.4242859,200.8131714,408.1531982,195.2677002"/>
	<path d="M401.9906921,190.7827301c0.3447266,0.3540039,0.7607422,0.8398438,1.2080078,1.512207
		c0.5488281,0.8261719,0.7353516,1.5712891,0.6035156,2.2089844c-0.109375,0.5805664-0.4970703,1.1367188-1.1445313,1.5595703
		c-0.6582031,0.4291992-1.2890625,0.5947266-1.8837891,0.5141602c-0.8222656-0.0961914-1.5712891-0.640625-2.1132813-1.4570313
		c-0.1650391-0.25-0.3085938-0.487793-0.3818359-0.7143555l-2.9111328,1.9008789l-0.5546875-0.8354492L401.9906921,190.7827301z
		 M399.0434265,193.9062653c0.0683594,0.2177734,0.1992188,0.4619141,0.3847656,0.7402344
		c0.6708984,1.0087891,1.6289063,1.2641602,2.6308594,0.609375c0.9599609-0.6264648,1.0205078-1.5341797,0.4082031-2.4560547
		c-0.2421875-0.3652344-0.4599609-0.6220703-0.5986328-0.7382813L399.0434265,193.9062653z"/>
	<path d="M401.1820984,203.5615387l0.5126953-0.5986328l-0.0234375-0.0253906
		c-0.5693359,0.1123047-1.3007813-0.0195313-1.8496094-0.5947266c-0.78125-0.8164063-0.5351563-1.8447266,0.1191406-2.465332
		c1.0927734-1.0375977,2.5175781-0.737793,3.9970703,0.8286133l0.09375-0.0883789
		c0.3710938-0.3540039,0.9570313-1.0844727,0.1689453-1.9091797c-0.3574219-0.3754883-0.8632813-0.6425781-1.3398438-0.730957
		l0.3818359-0.6806641c0.5625,0.1025391,1.1816406,0.4355469,1.6679688,0.9433594
		c1.1777344,1.2333984,0.5214844,2.4287109-0.3837891,3.2885742l-1.6894531,1.6044922
		c-0.3916016,0.3725586-0.7587891,0.7524414-1.0185547,1.0952148L401.1820984,203.5615387z M403.3842468,201.2636871
		c-0.7460938-0.8173828-1.7724609-1.5751953-2.6494141-0.7416992c-0.5322266,0.5053711-0.4814453,1.0610352-0.1230469,1.4360352
		c0.5019531,0.5249023,1.1923828,0.5039063,1.6865234,0.2568359c0.1074219-0.0546875,0.2167969-0.1264648,0.3017578-0.206543
		L403.3842468,201.2636871z"/>
	<path d="M406.5180359,202.6455231c0.4492188-0.5795898,0.8251953-1.0849609,1.1523438-1.5644531l0.6982422,0.5488281
		l-0.7207031,0.9873047l0.0361328,0.0283203c0.7109375-0.5039063,1.5146484-0.543457,2.0488281-0.1230469
		c0.0898438,0.0712891,0.1445313,0.1313477,0.2021484,0.2089844l-0.6523438,0.84375
		c-0.0664063-0.0844727-0.1396484-0.1586914-0.2490234-0.2441406c-0.5615234-0.4414063-1.3300781-0.2768555-1.9589844,0.3085938
		c-0.1113281,0.1079102-0.2402344,0.2353516-0.3574219,0.3886719l-2.0322266,2.6240234l-0.7880859-0.6201172
		L406.5180359,202.6455231z"/>
	<path d="M411.6801453,209.9731598l-0.0205078-0.0112305c-0.5556641,0.4008789-1.3349609,0.5341797-2.1240234,0.1049805
		c-1.1445313-0.621582-1.4794922-2.2387695-0.5820313-3.9047852c1.1044922-2.0507813,2.7773438-2.3134766,3.8105469-1.7519531
		c0.7587891,0.4125977,1.0390625,1.1069336,0.9960938,1.7714844l0.0205078,0.0117188l0.4755859-0.8105469l0.8408203,0.456543
		c-0.2705078,0.4536133-0.5371094,0.9243164-0.8427734,1.4907227l-3.3486328,6.2207031l-0.8925781-0.484375L411.6801453,209.9731598
		z M412.9789734,207.5590973c0.0732422-0.1352539,0.1494141-0.2998047,0.1845703-0.440918
		c0.1982422-0.6835938,0.0029297-1.4638672-0.6640625-1.8266602c-0.921875-0.5014648-1.9492188,0.0688477-2.6142578,1.3041992
		c-0.5849609,1.0878906-0.6318359,2.2924805,0.3505859,2.8261719c0.5771484,0.3139648,1.2871094,0.1875,1.8613281-0.3935547
		c0.1142578-0.1142578,0.2480469-0.2900391,0.3271484-0.4375L412.9789734,207.5590973z"/>
	<path d="M420.2377625,212.2197418c-0.1787109,0.6176758-0.3251953,1.1645508-0.4277344,1.6435547l-0.8652344-0.2441406
		l0.2265625-0.9921875l-0.0214844-0.0063477c-0.3945313,0.4101563-1.1435547,0.8803711-2.0966797,0.6108398
		c-0.8427734-0.237793-1.7021484-1.0419922-1.0927734-3.1435547l1.0126953-3.4980469l0.9765625,0.2763672l-0.9599609,3.3125
		c-0.3291016,1.1367188-0.2402344,1.9912109,0.6464844,2.2416992c0.6542969,0.1850586,1.2558594-0.1933594,1.5732422-0.6254883
		c0.1015625-0.1445313,0.1923828-0.3330078,0.2490234-0.53125l1.0634766-3.6708984l0.9755859,0.2758789L420.2377625,212.2197418z"/>
	<path d="M423.7992859,211.5254059c-0.1044922,1.5273438,0.7158203,2.2246094,1.7275391,2.3037109
		c0.7236328,0.0566406,1.1708984-0.050293,1.5644531-0.2001953l0.1044922,0.8212891
		c-0.3701172,0.1518555-0.9960938,0.3095703-1.8808594,0.2402344c-1.7109375-0.1342773-2.6279297-1.4711914-2.4716797-3.34375
		c0.1572266-1.8720703,1.2675781-3.2695313,2.8876953-3.1425781c1.8144531,0.1425781,2.1474609,1.9628906,2.0527344,3.1044922
		c-0.0195313,0.2304688-0.0576172,0.4082031-0.0791016,0.5224609L423.7992859,211.5254059z M426.8305359,210.9497223
		c0.0712891-0.7172852-0.1113281-1.8549805-1.2470703-1.9438477c-1.0224609-0.0800781-1.5595703,0.9360352-1.7050781,1.7119141
		L426.8305359,210.9497223z"/>
	<path d="M436.3442078,204.5634918l1.4736328,7.3789063c0.1074219,0.5429688,0.2431641,1.1582031,0.3603516,1.5683594
		l-0.8945313,0.171875l-0.2568359-1.0512695l-0.0224609,0.0043945c-0.1699219,0.7397461-0.7353516,1.3852539-1.6298828,1.5566406
		c-1.3242188,0.2539063-2.5927734-0.7988281-2.9628906-2.6533203c-0.4169922-2.0288086,0.4648438-3.4946289,1.8017578-3.7509766
		c0.8369141-0.1611328,1.4921875,0.171875,1.8398438,0.6162109l0.0224609-0.0039063l-0.7275391-3.6459961L436.3442078,204.5634918z
		 M436.4135437,210.0903473c-0.0283203-0.1386719-0.0771484-0.3256836-0.1386719-0.4580078
		c-0.2880859-0.6782227-0.9482422-1.1542969-1.6943359-1.0107422c-1.03125,0.1977539-1.4404297,1.3237305-1.171875,2.6738281
		c0.2470703,1.2358398,0.9960938,2.1538086,2.0703125,1.9472656c0.6679688-0.128418,1.1816406-0.737793,1.1972656-1.6049805
		c0.0029297-0.1577148-0.015625-0.3110352-0.0507813-0.4882813L436.4135437,210.0903473z"/>
	<path d="M444.1156921,211.3413239l-0.3759766-0.6928711l-0.0322266,0.0136719
		c-0.0986328,0.5712891-0.484375,1.2060547-1.2177734,1.5126953c-1.0419922,0.4365234-1.9160156-0.1601563-2.2617188-0.9912109
		c-0.5791016-1.3886719,0.2099609-2.6108398,2.203125-3.4311523l-0.0488281-0.1186523
		c-0.1982422-0.4750977-0.671875-1.2807617-1.7255859-0.8398438c-0.4775391,0.2001953-0.9082031,0.5751953-1.1611328,0.987793
		l-0.5-0.5996094c0.2978516-0.4863281,0.8300781-0.9467773,1.4785156-1.2177734
		c1.5742188-0.6586914,2.4570313,0.3798828,2.9365234,1.5317383l0.8964844,2.1484375
		c0.2080078,0.4980469,0.4326172,0.9755859,0.6591797,1.3408203L444.1156921,211.3413239z M442.7553406,208.4677887
		c-1.0322266,0.4033203-2.1064453,1.0898438-1.6416016,2.2055664c0.2832031,0.6767578,0.8203125,0.828125,1.2998047,0.6274414
		c0.6689453-0.2797852,0.8964844-0.9326172,0.8427734-1.4814453c-0.0136719-0.1201172-0.0419922-0.2480469-0.0869141-0.3544922
		L442.7553406,208.4677887z"/>
	<path d="M445.0121765,201.0761871c0.3232422-0.3710938,0.7724609-0.8261719,1.4033203-1.3271484
		c0.7763672-0.6162109,1.5039063-0.8652344,2.1523438-0.7880859c0.5888672,0.0581055,1.1767578,0.3955078,1.6552734,1.0019531
		c0.484375,0.6162109,0.7050781,1.2299805,0.6767578,1.8271484c-0.0253906,0.8242188-0.5039063,1.6142578-1.2714844,2.2231445
		c-0.2353516,0.1860352-0.4599609,0.3481445-0.6796875,0.440918l2.1494141,2.7275391l-0.7851563,0.6230469L445.0121765,201.0761871z
		 M448.3842468,203.7368317c0.2109375-0.0859375,0.4443359-0.2373047,0.7041016-0.4448242
		c0.9492188-0.7524414,1.1210938-1.7265625,0.3798828-2.6655273c-0.7070313-0.8994141-1.6181641-0.8823242-2.4853516-0.1948242
		c-0.34375,0.2724609-0.5820313,0.5102539-0.6855469,0.6582031L448.3842468,203.7368317z"/>
	<path d="M457.8539734,200.8076324l-0.6416016-0.4589844l-0.0224609,0.0258789
		c0.1582031,0.5551758,0.0878906,1.2905273-0.4443359,1.8833008c-0.7529297,0.8413086-1.8046875,0.6845703-2.4794922,0.0893555
		c-1.1289063-0.9941406-0.9472656-2.4311523,0.5009766-4.0288086l-0.0966797-0.0849609
		c-0.3847656-0.3398438-1.1650391-0.8574219-1.9267578-0.0073242c-0.3457031,0.3862305-0.5722656,0.9091797-0.6210938,1.3881836
		l-0.7138672-0.3212891c0.0566406-0.5644531,0.3388672-1.2070313,0.8076172-1.7304688
		c1.1386719-1.2714844,2.390625-0.722168,3.3261719,0.1025391l1.7470703,1.5380859
		c0.4042969,0.3574219,0.8154297,0.6884766,1.1806641,0.9169922L457.8539734,200.8076324z M455.3715515,198.8198395
		c-0.7587891,0.8071289-1.4326172,1.8881836-0.5253906,2.6870117c0.5498047,0.484375,1.1025391,0.387207,1.4492188,0.0009766
		c0.484375-0.5410156,0.4072266-1.2246094,0.1181641-1.6933594c-0.0634766-0.1025391-0.1445313-0.2041016-0.2314453-0.2807617
		L455.3715515,198.8198395z"/>
	<path d="M459.2895203,197.9799957l-1.7919922-4.0629883c-0.1552734-0.3808594-0.2861328-0.7314453-0.4365234-1.121582
		l-0.0224609-0.0136719l-1.5966797,2.5654297l-0.7783203-0.4780273l2.2480469-3.6132813l0.5966797,0.3808594l1.765625,4.0063477
		c0.1748047,0.3774414,0.3154297,0.7348633,0.4560547,1.1186523l0.0214844,0.0136719l1.7236328-2.7709961l0.7675781,0.4711914
		l-2.3945313,3.8476563L459.2895203,197.9799957z"/>
</g>
<g>
	<path fill="#706F6F" d="M713.383728,195.2676849c-5.227478-5.4996338-7.7391357-12.0669556-7.5349121-19.7019653
		c0.2042847-7.6350098,3.0640259-14.0829163,8.5794067-19.3437195c5.5601196-5.259613,12.1445313-7.7890167,19.7532349-7.5882111
		c7.6534424,0.2019806,14.1157227,3.0757141,19.3867798,8.62117c5.2263184,5.5442963,7.7373657,12.1339569,7.5331421,19.7689514
		c-0.2042236,7.6350098-3.0634155,14.0605927-8.5775757,19.2767487c-5.5601196,5.259613-12.1669312,7.7884216-19.8203735,7.586441
		C725.0947266,203.6862946,718.6548462,200.8131561,713.383728,195.2676849"/>
	<path d="M711.5790405,205.4965973c-0.3466797-0.0737305-0.9287109-0.3520508-1.5292969-0.8754883
		c-1.3916016-1.2143555-1.59375-3.109375-0.0380859-4.9174805c1.4873047-1.7250977,3.5410156-1.980957,5.0712891-0.6455078
		c0.6142578,0.5371094,0.8759766,1.0229492,0.9609375,1.2680664l-0.6542969,0.4462891
		c-0.1289063-0.3413086-0.3876953-0.7402344-0.7988281-1.0986328c-1.1572266-1.0092773-2.6367188-0.8540039-3.8837891,0.59375
		c-1.1621094,1.3496094-1.2128906,2.8232422-0.0117188,3.8710938c0.3886719,0.3393555,0.8623047,0.5942383,1.2382813,0.6787109
		L711.5790405,205.4965973z"/>
	<path d="M715.3475952,208.2055817l0.28125-0.5991211l-0.0244141-0.0151367
		c-0.4355469,0.2133789-1.0546875,0.2641602-1.6259766-0.0854492c-0.8134766-0.4975586-0.8447266-1.3886719-0.4550781-2.0356445
		c0.6503906-1.0810547,1.8681641-1.1450195,3.4140625-0.1875l0.0546875-0.0922852
		c0.2216797-0.3691406,0.53125-1.0908203-0.2900391-1.5927734c-0.3730469-0.2280273-0.8408203-0.3374023-1.2441406-0.3066406
		l0.15625-0.637207c0.4765625-0.0371094,1.0527344,0.0996094,1.5576172,0.4091797
		c1.2265625,0.7509766,0.9638672,1.8666992,0.4248047,2.7631836l-1.0058594,1.6728516
		c-0.2333984,0.3876953-0.4453125,0.7768555-0.5791016,1.1123047L715.3475952,208.2055817z M716.6141968,205.8569489
		c-0.7851563-0.5058594-1.7832031-0.9008789-2.3056641-0.0327148c-0.3173828,0.5273438-0.1523438,0.96875,0.2207031,1.1972656
		c0.5224609,0.3193359,1.0761719,0.152832,1.4199219-0.1552734c0.0751953-0.0678711,0.1474609-0.1499023,0.1972656-0.2333984
		L716.6141968,205.8569489z"/>
	<path d="M718.3319702,208.6762848c0.1611328,0.2670898,0.4980469,0.6181641,0.8935547,0.7841797
		c0.5742188,0.2407227,0.9775391,0.0356445,1.1435547-0.3613281c0.1757813-0.4174805,0.0478516-0.7397461-0.4335938-1.2226563
		c-0.6503906-0.6352539-0.8164063-1.2666016-0.5742188-1.8427734c0.3271484-0.7749023,1.1591797-1.1733398,2.0927734-0.7817383
		c0.4384766,0.1835938,0.765625,0.4848633,0.9414063,0.7456055l-0.4667969,0.5532227
		c-0.1191406-0.190918-0.3662109-0.4819336-0.7695313-0.6513672c-0.4667969-0.1953125-0.8515625-0.0063477-1.0029297,0.3510742
		c-0.1669922,0.3969727,0.0175781,0.6850586,0.4814453,1.1606445c0.6191406,0.6337891,0.828125,1.2128906,0.5273438,1.9277344
		c-0.3564453,0.8447266-1.1992188,1.1923828-2.2304688,0.7597656c-0.4755859-0.199707-0.859375-0.5131836-1.0820313-0.8398438
		L718.3319702,208.6762848z"/>
	<path d="M725.0751343,211.9814606l0.1015625-0.652832l-0.0283203-0.0073242
		c-0.3583984,0.3320313-0.9433594,0.5625-1.59375,0.3979492c-0.9238281-0.2338867-1.2050781-1.0727539-1.0126953-1.8027344
		c0.3212891-1.2202148,1.4785156-1.6396484,3.2392578-1.1831055l0.0273438-0.1044922
		c0.1103516-0.4169922,0.2041016-1.1943359-0.7285156-1.4301758c-0.4248047-0.1074219-0.9072266-0.0732422-1.2880859,0.074707
		l-0.0292969-0.6523438c0.4492188-0.1757813,1.0429688-0.2143555,1.6191406-0.0693359
		c1.3945313,0.3530273,1.4560547,1.4926758,1.1894531,2.5039063l-0.4990234,1.8876953
		c-0.1152344,0.4379883-0.2080078,0.8706055-0.2421875,1.2285156L725.0751343,211.9814606z M725.6327515,209.3750153
		c-0.9003906-0.2504883-1.9755859-0.3330078-2.234375,0.6469727c-0.1572266,0.5947266,0.1269531,0.9663086,0.5517578,1.0737305
		c0.5947266,0.1508789,1.0820313-0.1708984,1.3271484-0.5649414c0.0527344-0.0869141,0.0996094-0.1865234,0.1240234-0.2797852
		L725.6327515,209.3750153z"/>
	<path d="M734.9227905,205.2548981l-0.125,6.3095703c-0.0078125,0.4638672-0.0097656,0.9926758,0.0136719,1.3491211
		l-0.7675781-0.0131836l-0.0214844-0.90625l-0.0195313-0.0004883c-0.2734375,0.5776367-0.8554688,1.0102539-1.6240234,0.9970703
		c-1.1367188-0.019043-1.9912109-1.1015625-1.9589844-2.6870117c0.0234375-1.7373047,1.0175781-2.7880859,2.1630859-2.769043
		c0.7197266,0.012207,1.1982422,0.3984375,1.4042969,0.8217773l0.0195313,0.0009766l0.0615234-3.1171875L734.9227905,205.2548981z
		 M733.9784546,209.8027496c0.0019531-0.1191406-0.0039063-0.2807617-0.03125-0.3994141
		c-0.1142578-0.6064453-0.5712891-1.1108398-1.2128906-1.121582c-0.8847656-0.0151367-1.4257813,0.8393555-1.4492188,1.9931641
		c-0.0205078,1.0571289,0.4277344,1.9389648,1.3525391,1.9545898c0.5732422,0.0097656,1.1064453-0.4023438,1.2753906-1.1118164
		c0.0322266-0.128418,0.0439453-0.2578125,0.046875-0.4091797L733.9784546,209.8027496z"/>
	<path d="M741.1552124,209.4990387c0.3066406,1.9042969-0.7519531,2.9150391-1.875,3.0849609
		c-1.2597656,0.190918-2.3945313-0.6831055-2.6572266-2.3110352c-0.2773438-1.7236328,0.578125-2.8881836,1.8652344-3.0834961
		C739.8241577,206.9873199,740.9003296,207.9248199,741.1552124,209.4990387z M737.4725952,210.1113434
		c0.1816406,1.1279297,0.9052734,1.8901367,1.7324219,1.7646484c0.8066406-0.1220703,1.2763672-1.0541992,1.0898438-2.2138672
		c-0.1416016-0.8725586-0.7119141-1.9189453-1.7119141-1.7675781S737.3153687,209.1328278,737.4725952,210.1113434z"/>
	<path d="M743.3817749,204.1518707c0.3457031-0.2304688,0.8125-0.5004883,1.4384766-0.7680664
		c0.7685547-0.3286133,1.4160156-0.371582,1.9257813-0.1679688c0.4658203,0.1762695,0.8691406,0.5776367,1.1230469,1.171875
		c0.2578125,0.6044922,0.2998047,1.1494141,0.1435547,1.6264648c-0.2041016,0.6611328-0.7695313,1.1962891-1.5302734,1.5209961
		c-0.2324219,0.0996094-0.4511719,0.1811523-0.6513672,0.2080078l1.1416016,2.6762695l-0.7783203,0.3325195L743.3817749,204.1518707
		z M745.5321655,207.0400543c0.1904297-0.0234375,0.4130859-0.0952148,0.6728516-0.2060547
		c0.9394531-0.4018555,1.2958984-1.1518555,0.9033203-2.0737305c-0.3769531-0.8823242-1.1210938-1.0673828-1.9794922-0.7001953
		c-0.3388672,0.1455078-0.5859375,0.2861328-0.703125,0.3833008L745.5321655,207.0400543z"/>
	<path d="M753.7723999,203.6411285c1.0400391,1.6259766,0.484375,2.9951172-0.4667969,3.6181641
		c-1.0673828,0.6977539-2.4472656,0.3637695-3.3378906-1.0258789c-0.9423828-1.472168-0.6328125-2.8994141,0.4599609-3.612793
		C751.5585327,201.8803864,752.9110718,202.2973785,753.7723999,203.6411285z M750.6757202,205.7324371
		c0.6152344,0.9624023,1.5771484,1.3642578,2.2773438,0.9057617c0.6845703-0.4472656,0.7382813-1.5,0.1044922-2.4902344
		c-0.4775391-0.7451172-1.4169922-1.4707031-2.2626953-0.9169922
		C749.9472046,203.7846832,750.1395874,204.8964996,750.6757202,205.7324371z"/>
	<path d="M753.586853,200.4487457l2.6513672,1.559082c0.4326172,0.2475586,0.8154297,0.4833984,1.1757813,0.7387695
		l0.0224609-0.0195313c-0.2099609-0.3920898-0.3984375-0.8032227-0.5986328-1.2597656l-1.2851563-2.7895508l0.6650391-0.5996094
		l2.1210938,5.1123047l-0.6074219,0.5463867l-4.8232422-2.6762695L753.586853,200.4487457z"/>
	<path d="M761.5438843,195.7060699c1.5058594,1.2041016,1.3984375,2.6621094,0.6787109,3.543457
		c-0.8056641,0.9863281-2.2353516,1.1015625-3.5224609,0.0727539c-1.3632813-1.0898438-1.5107422-2.5268555-0.6855469-3.5356445
		C758.8700562,194.7402496,760.2977905,194.711441,761.5438843,195.7060699z M759.2225952,198.6313629
		c0.890625,0.7133789,1.9404297,0.7919922,2.4697266,0.144043c0.5175781-0.6323242,0.2402344-1.6386719-0.6777344-2.3710938
		c-0.6904297-0.5512695-1.8164063-0.9423828-2.4570313-0.1586914
		C757.9169312,197.0283356,758.4481812,198.0136871,759.2225952,198.6313629z"/>
</g>
<g>
	<path fill="#706F6F" d="M640.0254517,195.2677002c-5.2275391-5.499649-7.7391968-12.0669708-7.5349121-19.7019806
		c0.2042236-7.6349945,3.0640259-14.082901,8.5794067-19.3437195c5.5601196-5.259613,12.1444702-7.7890167,19.7531738-7.5882111
		c7.6534424,0.2019958,14.1157227,3.0757141,19.3868408,8.62117c5.2263184,5.5443115,7.7373657,12.1339569,7.5330811,19.7689514
		c-0.2042236,7.6350098-3.0634155,14.0605927-8.5775757,19.2767487c-5.5601196,5.259613-12.1669312,7.7884369-19.8203735,7.586441
		C651.7363892,203.6862946,645.2965088,200.8131714,640.0254517,195.2677002"/>
	<path d="M635.2098999,201.655777c0.109375,0.4472656,0.3789063,0.9785156,0.8134766,1.3681641
		c0.6416016,0.5786133,1.3544922,0.5366211,1.8398438-0.012207c0.4511719-0.5078125,0.4482422-1.0327148,0.0400391-1.9057617
		c-0.5166016-1.0297852-0.6005859-1.9306641,0.0771484-2.6972656c0.7509766-0.8476563,1.9375-0.9121094,2.8847656-0.0605469
		c0.4990234,0.4472656,0.7460938,0.9013672,0.8417969,1.2333984l-0.6816406,0.4169922
		c-0.0722656-0.2397461-0.2558594-0.6933594-0.6972656-1.0893555c-0.6650391-0.597168-1.3095703-0.3813477-1.6396484-0.0097656
		c-0.4501953,0.5083008-0.375,1.0244141,0.0410156,1.9194336c0.5087891,1.0952148,0.5361328,1.9155273-0.171875,2.7148438
		c-0.7431641,0.8388672-1.9433594,1.0649414-3.0927734,0.0327148c-0.4697266-0.4223633-0.8476563-1.0371094-0.9365234-1.4643555
		L635.2098999,201.655777z"/>
	<path d="M641.1952515,207.7509918l0.2949219-0.5922852l-0.0244141-0.015625
		c-0.4404297,0.2026367-1.0605469,0.237793-1.625-0.1269531c-0.7988281-0.5175781-0.8085938-1.409668-0.4042969-2.0463867
		c0.6777344-1.0644531,1.8964844-1.097168,3.4169922-0.0996094l0.0585938-0.0913086
		c0.2314453-0.3637695,0.5576172-1.0771484-0.2509766-1.6000977c-0.3681641-0.237793-0.8320313-0.359375-1.2353516-0.3388672
		l0.171875-0.6328125c0.4765625-0.0249023,1.0478516,0.1269531,1.5458984,0.4487305
		c1.2080078,0.7817383,0.9179688,1.8911133,0.3564453,2.7729492l-1.0478516,1.6469727
		c-0.2421875,0.3828125-0.4628906,0.7661133-0.6035156,1.0976563L641.1952515,207.7509918z M642.5165405,205.4345856
		c-0.7714844-0.5244141-1.7597656-0.9458008-2.3037109-0.0908203c-0.3291016,0.5185547-0.1748047,0.965332,0.1914063,1.203125
		c0.515625,0.3320313,1.0732422,0.1796875,1.4248047-0.1191406c0.0771484-0.0664063,0.1503906-0.1464844,0.2021484-0.2285156
		L642.5165405,205.4345856z"/>
	<path d="M645.4677124,205.8252106c0.2099609-0.4960938,0.3720703-0.9072266,0.5126953-1.315918l0.7001953,0.293457
		l-0.2910156,0.8134766l0.0185547,0.0073242c0.4072266-0.3662109,1.0986328-0.6025391,1.8154297-0.3017578
		c0.6005859,0.2519531,1.3662109,1.0405273,0.6699219,2.6899414l-1.2109375,2.8706055l-0.7871094-0.3310547l1.1669922-2.7714844
		c0.3271484-0.7749023,0.3388672-1.5297852-0.4052734-1.8417969c-0.5195313-0.21875-1.0947266,0.019043-1.4345703,0.4501953
		c-0.0820313,0.09375-0.1630859,0.2353516-0.2255859,0.3847656l-1.2197266,2.8896484l-0.7871094-0.3305664L645.4677124,205.8252106z
		"/>
	<path d="M652.6073608,205.2856598l-0.3808594,1.449707l1.1875,0.2983398l-0.1835938,0.6987305l-1.1865234-0.2983398
		l-0.7148438,2.722168c-0.1650391,0.6259766-0.0966797,1.0200195,0.3652344,1.1362305
		c0.2167969,0.0546875,0.3847656,0.0634766,0.4970703,0.0585938l-0.1425781,0.6982422
		c-0.1796875,0.0327148-0.4482422,0.0205078-0.7695313-0.0600586c-0.3857422-0.097168-0.6621094-0.3110352-0.7949219-0.6113281
		c-0.1640625-0.3300781-0.1318359-0.7998047,0.0253906-1.3950195l0.7226563-2.753418l-0.7080078-0.1772461l0.1835938-0.6987305
		l0.7070313,0.1777344l0.3173828-1.2094727L652.6073608,205.2856598z"/>
	<path d="M658.4345093,210.2734528c-0.2226563,1.9179688-1.5185547,2.6235352-2.6494141,2.5004883
		c-1.2666016-0.137207-2.1230469-1.2714844-1.9326172-2.9106445c0.203125-1.7353516,1.3466797-2.6420898,2.6416016-2.5014648
		C657.8378296,207.5078278,658.6200562,208.6880035,658.4345093,210.2734528z M654.7167358,209.9243317
		c-0.1318359,1.1357422,0.3574219,2.0566406,1.1884766,2.1469727c0.8125,0.0883789,1.5195313-0.6923828,1.65625-1.8598633
		c0.1025391-0.878418-0.1640625-2.0356445-1.1699219-2.1445313
		C655.3876343,207.9575348,654.8319702,208.9384918,654.7167358,209.9243317z"/>
	<path d="M663.7098999,210.4550934l-0.3574219,2.3515625l-0.8691406,0.1132813l1.1992188-7.4848633l1.0126953-0.1318359
		l3.2304688,6.9082031l-0.8974609,0.1171875l-1.0126953-2.1738281L663.7098999,210.4550934z M665.7401733,209.4511871
		l-0.9287109-1.9887695c-0.2109375-0.4506836-0.3671875-0.8652344-0.5214844-1.2695313l-0.0195313,0.0024414
		c-0.0361328,0.4399414-0.0800781,0.8916016-0.1445313,1.3457031l-0.3447266,2.1655273L665.7401733,209.4511871z"/>
	<path d="M668.9550171,208.1294098c-0.1962891-0.5019531-0.3652344-0.909668-0.5488281-1.3012695l0.6972656-0.2714844
		l0.3417969,0.769043l0.0263672-0.0107422c0.0654297-0.5576172,0.3037109-1.1484375,1.0273438-1.4301758
		c0.5986328-0.2333984,1.2070313-0.0083008,1.6210938,0.4897461l0.0175781-0.0073242
		c0.0302734-0.3237305,0.1210938-0.6015625,0.2431641-0.8227539c0.1767578-0.3237305,0.4189453-0.5571289,0.8349609-0.7197266
		c0.5800781-0.2255859,1.6044922-0.1391602,2.2626953,1.5473633l1.1142578,2.8613281l-0.7783203,0.3037109l-1.0722656-2.7509766
		c-0.3642578-0.9335938-0.890625-1.3759766-1.5341797-1.125c-0.453125,0.1767578-0.6601563,0.6850586-0.6279297,1.1704102
		c0.0107422,0.1347656,0.046875,0.3061523,0.1083984,0.4663086l1.1699219,3.0019531l-0.7783203,0.3037109l-1.1347656-2.9116211
		c-0.3017578-0.7729492-0.828125-1.215332-1.4355469-0.9785156c-0.4980469,0.1938477-0.6875,0.7768555-0.6425781,1.2685547
		c0.0058594,0.1479492,0.0458984,0.3056641,0.1044922,0.4560547l1.1435547,2.9321289l-0.7783203,0.3037109L668.9550171,208.1294098z
		"/>
	<path d="M681.1688843,206.2827301l-0.4189453-0.5102539l-0.0244141,0.0166016
		c0.0097656,0.4882813-0.2070313,1.0771484-0.7626953,1.453125c-0.7890625,0.5336914-1.6035156,0.1875-2.0195313-0.4418945
		c-0.6972656-1.050293-0.2412109-2.1918945,1.2705078-3.2021484l-0.0595703-0.0893555
		c-0.2392578-0.359375-0.7548828-0.9462891-1.5527344-0.40625c-0.3623047,0.2451172-0.6572266,0.6264648-0.8007813,1.0097656
		l-0.5068359-0.4121094c0.1679688-0.4511719,0.5341797-0.9204102,1.0244141-1.2529297
		c1.1914063-0.8061523,2.0830078-0.0957031,2.6621094,0.7753906l1.078125,1.6259766
		c0.2490234,0.3764648,0.5107422,0.734375,0.7548828,0.9975586L681.1688843,206.2827301z M679.593689,204.1352692
		c-0.7861328,0.5053711-1.5615234,1.2514648-1.0019531,2.0961914c0.3398438,0.5117188,0.8066406,0.546875,1.1689453,0.3012695
		c0.5078125-0.3427734,0.5917969-0.9199219,0.4599609-1.3647461c-0.0292969-0.0976563-0.0732422-0.1972656-0.1269531-0.2783203
		L679.593689,204.1352692z"/>
	<path d="M681.1317749,201.7827301c-0.4023438-0.4638672-0.7558594-0.8564453-1.0966797-1.203125l0.5654297-0.4921875
		l0.6923828,0.7548828l0.0292969-0.0258789c-0.296875-0.6699219-0.1982422-1.3413086,0.2333984-1.71875
		c0.0732422-0.0634766,0.1318359-0.1000977,0.2041016-0.1352539l0.5869141,0.6757813
		c-0.0800781,0.0410156-0.1533203,0.090332-0.2412109,0.1669922c-0.4541016,0.3959961-0.4453125,1.0600586-0.0673828,1.6733398
		c0.0703125,0.1103516,0.1552734,0.2373047,0.2617188,0.359375l1.8203125,2.0996094l-0.6357422,0.5556641L681.1317749,201.7827301z"
		/>
	<path d="M687.274353,196.8818512c1.4550781,1.2675781,1.2890625,2.7231445,0.5332031,3.5742188
		c-0.8447266,0.9536133-2.2763672,1.0087891-3.5205078-0.074707c-1.3173828-1.1474609-1.4052734-2.5922852-0.5400391-3.5673828
		C684.6425171,195.8017731,686.071228,195.8335114,687.274353,196.8818512z M684.836853,199.7119293
		c0.8623047,0.7509766,1.90625,0.8740234,2.4609375,0.2475586c0.5419922-0.6113281,0.3056641-1.6293945-0.5791016-2.4013672
		c-0.6679688-0.5810547-1.7773438-1.019043-2.4492188-0.2626953
		C683.5995483,198.0527496,684.0888062,199.0600739,684.836853,199.7119293z"/>
</g>
<g>
	<path fill="#706F6F" d="M564.928772,195.2676849c-5.227478-5.4996338-7.7391357-12.0669556-7.5349121-19.7019653
		c0.2042847-7.6350098,3.0640869-14.0829163,8.5794067-19.3437195c5.5601196-5.259613,12.1445313-7.7890167,19.7532349-7.5882111
		c7.6534424,0.2019806,14.1157227,3.0757141,19.3867798,8.62117c5.2263184,5.5442963,7.7373657,12.1339569,7.5331421,19.7689514
		c-0.2042236,7.6350098-3.0634155,14.0605927-8.5775757,19.2767487c-5.5601196,5.259613-12.1669312,7.7884216-19.8203735,7.586441
		C576.6397705,203.6862946,570.1998901,200.8131561,564.928772,195.2676849"/>
	<path d="M567.727478,200.5957184l0.8486328,0.5351563l-4.0820313,6.5703125l2.8105469,1.7714844l-0.4960938,0.7978516
		l-3.6591797-2.3066406L567.727478,200.5957184z"/>
	<path d="M572.0057983,212.5088043l0.2119141-0.7602539l-0.03125-0.012207
		c-0.4697266,0.3417969-1.1894531,0.5307617-1.9287109,0.2416992c-1.0537109-0.4111328-1.265625-1.4472656-0.9355469-2.2856445
		c0.5517578-1.4018555,1.9707031-1.7324219,3.9755859-0.9360352l0.046875-0.1196289
		c0.1884766-0.4794922,0.4091797-1.3881836-0.6542969-1.8032227c-0.4833984-0.1889648-1.0537109-0.2182617-1.5234375-0.097168
		l0.0585938-0.7783203c0.5517578-0.144043,1.2558594-0.1044922,1.9111328,0.1513672
		c1.5898438,0.6206055,1.5,1.9814453,1.0429688,3.1435547l-0.8535156,2.1679688
		c-0.1982422,0.5029297-0.3691406,1.0029297-0.4609375,1.4233398L572.0057983,212.5088043z M573.0302124,209.4951324
		c-1.0214844-0.4262695-2.2724609-0.6796875-2.7158203,0.4462891c-0.2685547,0.6826172,0.0126953,1.1660156,0.4970703,1.3544922
		c0.6748047,0.2636719,1.2939453-0.0473633,1.6376953-0.4794922c0.0751953-0.0957031,0.1435547-0.2070313,0.1855469-0.3149414
		L573.0302124,209.4951324z"/>
	<path d="M576.4891968,209.3818512c0.1591797-0.7158203,0.2861328-1.3330078,0.3798828-1.9047852l0.8681641,0.1865234
		l-0.2333984,1.199707l0.0439453,0.0097656c0.4316406-0.7626953,1.1455078-1.1494141,1.8105469-1.0058594
		c0.1123047,0.0239258,0.1884766,0.0532227,0.2734375,0.0976563l-0.234375,1.0415039
		c-0.0957031-0.0463867-0.1943359-0.0810547-0.3291016-0.1098633c-0.7001953-0.1503906-1.328125,0.3330078-1.6503906,1.1318359
		c-0.0556641,0.1459961-0.1181641,0.3164063-0.1601563,0.5048828l-0.7294922,3.2373047l-0.9794922-0.2099609
		L576.4891968,209.3818512z"/>
	<path d="M583.4696655,214.6533356l-0.0263672-0.7871094l-0.0341797-0.0024414
		c-0.3447266,0.4667969-0.9746094,0.862793-1.7675781,0.8105469c-1.1279297-0.074707-1.640625-0.9985352-1.5771484-1.8959961
		c0.1064453-1.5009766,1.3603516-2.2426758,3.5107422-2.0869141l0.0097656-0.1289063
		c0.0361328-0.5126953-0.0253906-1.4448242-1.1650391-1.5205078c-0.5166016-0.0341797-1.0703125,0.109375-1.4824219,0.3657227
		l-0.1767578-0.7592773c0.4833984-0.3027344,1.1669922-0.4765625,1.8681641-0.4301758
		c1.703125,0.1132813,2.0253906,1.4360352,1.9375,2.6806641l-0.1640625,2.3217773
		c-0.0380859,0.5390625-0.0517578,1.0664063-0.0126953,1.4941406L583.4696655,214.6533356z M583.5429077,211.4756012
		c-1.1025391-0.0996094-2.3720703,0.0356445-2.4570313,1.2412109c-0.0507813,0.7314453,0.3623047,1.1069336,0.8789063,1.1411133
		c0.7246094,0.0483398,1.2216797-0.434082,1.4189453-0.949707c0.0429688-0.1132813,0.0742188-0.2402344,0.0839844-0.3554688
		L583.5429077,211.4756012z"/>
	<path d="M586.899353,210.1631012c-0.0810547-0.6386719-0.1572266-1.1611328-0.2558594-1.6679688l0.8945313-0.1044922
		l0.1835938,1.0151367l0.0224609-0.0029297c0.2011719-0.6196289,0.7714844-1.2700195,1.6884766-1.3774414
		c0.7675781-0.0898438,2.0224609,0.28125,2.2871094,2.4013672l0.4619141,3.6914063l-1.0078125,0.1181641l-0.4462891-3.5634766
		c-0.1240234-0.9960938-0.5595703-1.7875977-1.5107422-1.6757813c-0.6640625,0.078125-1.1142578,0.6621094-1.2080078,1.3081055
		c-0.0283203,0.1459961-0.0273438,0.3398438-0.0029297,0.5317383l0.4658203,3.7167969l-1.0078125,0.1181641L586.899353,210.1631012z
		"/>
	<path d="M594.0028687,205.4209137c0.1132813,0.3564453-0.0332031,0.7304688-0.421875,0.8378906
		c-0.3652344,0.1015625-0.6865234-0.1430664-0.7880859-0.5019531c-0.109375-0.3837891,0.0634766-0.7519531,0.4296875-0.8535156
		C593.5770874,204.8047028,593.8934937,205.0371246,594.0028687,205.4209137z M594.1434937,215.5293121
		c0.4345703-0.1601563,0.7851563-0.4042969,0.9375-0.7539063c0.1679688-0.4204102,0.1357422-0.918457-0.2714844-2.3544922
		l-1.4189453-5.0146484l0.9775391-0.2705078l1.5380859,5.4350586c0.3291016,1.1635742,0.3759766,1.965332,0.0517578,2.6420898
		c-0.2949219,0.6030273-0.9492188,0.9980469-1.4716797,1.1425781L594.1434937,215.5293121z"/>
	<path d="M598.0917358,209.3886871c0.6416016,1.3896484,1.6972656,1.6083984,2.625,1.1953125
		c0.6630859-0.2958984,1.0058594-0.6035156,1.2802734-0.9233398l0.4873047,0.6704102
		c-0.2539063,0.3095703-0.7294922,0.7470703-1.5390625,1.1083984c-1.5712891,0.7001953-3.0195313-0.0341797-3.78125-1.7504883
		c-0.7607422-1.7158203-0.4541016-3.4716797,1.0322266-4.1337891c1.6640625-0.7421875,2.8320313,0.6943359,3.2958984,1.7407227
		c0.09375,0.2119141,0.1455078,0.3857422,0.1806641,0.4960938L598.0917358,209.3886871z M600.4813843,207.4365387
		c-0.28125-0.6630859-0.9882813-1.5727539-2.0302734-1.1079102c-0.9384766,0.4179688-0.921875,1.5649414-0.6777344,2.3149414
		L600.4813843,207.4365387z"/>
	<path d="M601.6298218,201.8213043c0.2119141,0.3212891,0.1611328,0.71875-0.1796875,0.934082
		c-0.3017578,0.190918-0.6796875,0.0639648-0.8837891-0.2636719c-0.2099609-0.3388672-0.1494141-0.7426758,0.1621094-0.9394531
		C601.0507202,201.3491364,601.4188843,201.4824371,601.6298218,201.8213043z M604.883728,209.1982574l-3.2861328-5.2880859
		l0.8574219-0.5415039l3.2880859,5.2885742L604.883728,209.1982574z"/>
	<path d="M605.1845093,203.8359528c-0.4511719-0.578125-0.8466797-1.0683594-1.2304688-1.503418l0.6972656-0.5493164
		l0.7792969,0.9423828l0.0351563-0.0283203c-0.3154297-0.8164063-0.1591797-1.6103516,0.3759766-2.03125
		c0.0908203-0.0712891,0.1621094-0.1113281,0.25-0.1474609l0.6572266,0.8417969
		c-0.0976563,0.0439453-0.1875,0.0981445-0.2949219,0.1835938c-0.5625,0.4423828-0.5888672,1.2329102-0.1757813,1.9882813
		c0.0771484,0.1357422,0.1699219,0.2919922,0.2880859,0.4443359l2.0419922,2.6181641l-0.7890625,0.6201172L605.1845093,203.8359528z
		"/>
	<path d="M612.7489624,198.2505035c1.6865234,1.5668945,1.4423828,3.2910156,0.5185547,4.2739258
		c-1.0351563,1.1000977-2.7382813,1.1079102-4.1806641-0.230957c-1.5283203-1.418457-1.5869141-3.1396484-0.5273438-4.2651367
		C609.6581421,196.8608551,611.352478,196.9550934,612.7489624,198.2505035z M609.7616577,201.5195465
		c0.9990234,0.9277344,2.2363281,1.1157227,2.9150391,0.3935547c0.6640625-0.7055664,0.4160156-1.9262695-0.6113281-2.8803711
		c-0.7734375-0.7172852-2.078125-1.2836914-2.8994141-0.4101563S608.8944702,200.7143707,609.7616577,201.5195465z"/>
</g>
<g>
	<path fill="#575FA8" d="M784.3469849,200.6286926c-6.7019653-7.050827-9.9219971-15.4704742-9.6601563-25.2589417
		s3.9282227-18.0550079,10.9992065-24.7996368c7.1283569-6.7430878,15.5699463-9.9859161,25.324646-9.7284698
		c9.8121338,0.2589569,18.0971069,3.9432068,24.8549194,11.0527802c6.7003784,7.108078,9.9196777,15.5563507,9.6578369,25.3448029
		c-0.2618408,9.7884827-3.9274902,18.0263977-10.9969482,24.7137756c-7.1283569,6.743103-15.5985718,9.9851685-25.4107056,9.7262115
		C799.3610229,211.4217682,791.1047974,207.738266,784.3469849,200.6286926"/>
	<path d="M790.2235718,218.7563629c-0.4550781-0.0014648-1.2578125-0.1972656-2.1503906-0.6962891
		c-2.0654297-1.1567383-2.8183594-3.4785156-1.3398438-6.1518555c1.4111328-2.5522461,3.9228516-3.4111328,6.1953125-2.1391602
		c0.9130859,0.5112305,1.3691406,1.0517578,1.5390625,1.3369141l-0.703125,0.7304688
		c-0.2519531-0.394043-0.6826172-0.8251953-1.2910156-1.1660156c-1.71875-0.9619141-3.5361328-0.3798828-4.71875,1.7612305
		c-1.1044922,1.9960938-0.7792969,3.8564453,1.0019531,4.8549805c0.5771484,0.3222656,1.2382813,0.5180664,1.7314453,0.5253906
		L790.2235718,218.7563629z"/>
	<path d="M798.9247437,218.5703278c-0.7890625,2.3447266-2.6005859,2.8833008-3.9853516,2.4277344
		c-1.5498047-0.5117188-2.3203125-2.1630859-1.6455078-4.1674805c0.7138672-2.1225586,2.3876953-2.9536133,3.9726563-2.4311523
		C798.9120483,214.9409332,799.5770874,216.6308746,798.9247437,218.5703278z M794.359314,217.1381989
		c-0.4677734,1.3886719-0.0986328,2.675293,0.9199219,3.0102539c0.9931641,0.3276367,2.0869141-0.4619141,2.5673828-1.8896484
		c0.3623047-1.074707,0.3359375-2.597168-0.8955078-3.0029297
		C795.7216187,214.8501129,794.765564,215.9326324,794.359314,217.1381989z"/>
	<path d="M801.2313843,217.7719879c0.1445313-0.7744141,0.2548828-1.4433594,0.3310547-2.0610352l0.9453125,0.1645508
		l-0.203125,1.2978516l0.0498047,0.0087891c0.4335938-0.8369141,1.1875-1.2807617,1.9121094-1.1547852
		c0.1230469,0.0214844,0.2060547,0.050293,0.2988281,0.0947266l-0.2080078,1.128418
		c-0.1054688-0.0463867-0.2138672-0.0795898-0.3613281-0.1049805c-0.7617188-0.1328125-1.4199219,0.4116211-1.7333984,1.2836914
		c-0.0537109,0.1586914-0.1152344,0.3447266-0.1523438,0.5483398l-0.6484375,3.5078125l-1.0673828-0.1865234
		L801.2313843,217.7719879z"/>
	<path d="M805.7167358,218.4311676c0.0605469-0.7861328,0.0996094-1.4614258,0.1103516-2.0854492l0.9570313,0.0678711
		l-0.0634766,1.3120117l0.0498047,0.0039063c0.3427734-0.8769531,1.0439453-1.3955078,1.7773438-1.34375
		c0.125,0.0087891,0.2109375,0.0288086,0.3085938,0.0634766l-0.0869141,1.144043
		c-0.1113281-0.0356445-0.2216797-0.0571289-0.3710938-0.0678711c-0.7705078-0.0541992-1.3662109,0.5551758-1.5859375,1.4541016
		c-0.0371094,0.1640625-0.0771484,0.3554688-0.0927734,0.5620117l-0.2724609,3.5566406l-1.0820313-0.0761719
		L805.7167358,218.4311676z"/>
	<path d="M810.258728,218.6445465c-0.0244141-0.7880859-0.0576172-1.4638672-0.1142578-2.0844727l0.9599609-0.0253906
		l0.078125,1.3115234l0.0498047-0.0019531c0.2460938-0.9047852,0.890625-1.4882813,1.625-1.5073242
		c0.125-0.003418,0.2128906,0.0078125,0.3125,0.0332031l0.0361328,1.1464844
		c-0.1142578-0.0249023-0.2255859-0.0356445-0.3759766-0.0317383c-0.7724609,0.0200195-1.3007813,0.6835938-1.421875,1.5991211
		c-0.0205078,0.1665039-0.0390625,0.3603516-0.0332031,0.5678711l0.1103516,3.5625l-1.0849609,0.0283203L810.258728,218.6445465z"/>
	<path d="M820.3222046,218.7954254c0.4160156,2.4389648-0.9296875,3.7480469-2.3701172,3.9799805
		c-1.6132813,0.2597656-3.0791016-0.8496094-3.4345703-2.9345703c-0.3759766-2.2084961,0.7089844-3.7128906,2.3583984-3.9790039
		C818.586853,215.5869293,819.9784546,216.777359,820.3222046,218.7954254z M815.6063843,219.6230621
		c0.2460938,1.4448242,1.1835938,2.4145508,2.2421875,2.2441406c1.0332031-0.1655273,1.6259766-1.3676758,1.3720703-2.8530273
		c-0.1904297-1.1186523-0.9355469-2.4545898-2.2167969-2.2490234
		C815.7235718,216.9716949,815.3934937,218.3696442,815.6063843,219.6230621z"/>
	<path d="M821.9569702,212.8930817c0.1328125,0.3935547-0.0332031,0.7895508-0.4521484,0.9140625
		c-0.3691406,0.1108398-0.7285156-0.1269531-0.8496094-0.5234375c-0.125-0.4101563,0.0537109-0.8100586,0.4365234-0.9238281
		C821.484314,212.2417145,821.8319702,212.4834137,821.9569702,212.8930817z M823.2841187,221.4389801l-1.9501953-6.3969727
		l1.0517578-0.3149414l1.9482422,6.3974609L823.2841187,221.4389801z"/>
	<path d="M830.7304077,214.8535309c1.0166016,2.2563477,0.0507813,3.8779297-1.2773438,4.4804688
		c-1.4882813,0.6748047-3.1796875-0.0151367-4.0488281-1.9438477c-0.9199219-2.0424805-0.2548828-3.7851563,1.2675781-4.4755859
		C828.249939,212.1987457,829.890564,212.9878082,830.7304077,214.8535309z M826.3983765,216.8940582
		c0.6005859,1.3359375,1.7480469,2.0302734,2.7255859,1.5874023c0.953125-0.4321289,1.2207031-1.7529297,0.6015625-3.1269531
		c-0.4648438-1.0332031-1.5214844-2.1333008-2.7021484-1.5976563
		C825.8417358,214.2924957,825.8759155,215.7343903,826.3983765,216.8940582z"/>
	<path d="M833.633728,215.5825348c0.3974609,0.0175781,1.0126953-0.090332,1.46875-0.3925781
		c0.6650391-0.440918,0.7363281-1.0185547,0.4345703-1.4819336c-0.3154297-0.4868164-0.7490234-0.5805664-1.6064453-0.4111328
		c-1.1376953,0.2392578-1.9248047-0.0341797-2.3623047-0.7060547c-0.5878906-0.9038086-0.4150391-2.0791016,0.6660156-2.7949219
		c0.5087891-0.3374023,1.0615234-0.4711914,1.4628906-0.472168l0.2539063,0.8930664
		c-0.2880859-0.0083008-0.7724609,0.0473633-1.2412109,0.3574219c-0.5390625,0.3579102-0.6142578,0.9047852-0.3427734,1.3222656
		c0.2998047,0.4633789,0.7373047,0.4726563,1.5732422,0.3168945c1.1142578-0.2080078,1.8779297-0.0170898,2.4199219,0.8164063
		c0.6416016,0.9853516,0.4072266,2.1347656-0.7880859,2.9262695c-0.5507813,0.3652344-1.1582031,0.5517578-1.6630859,0.5541992
		L833.633728,215.5825348z"/>
</g>
<path fill="#FFFFFF" d="M820.1033325,155.6408539v16.8536682l-3.5634155,3.2066956v-14.6164856l-16.2426147,14.69104
	l-2.486145-2.3117828l16.2426147-14.69104h-16.2426147l3.5634155-3.1320953H820.1033325 M818.8602905,179.0570374
	l-16.2426147,14.6164551h16.2426147l-3.5634766,3.2066803h-18.7286987v-16.8536835l3.5634155-3.206665v14.6164551
	l16.2426147-14.6164551L818.8602905,179.0570374"/>
<path fill="#FAB95E" d="M79.7497864,211.2454224l-16.3510437,8.603241l16.0425339,8.9406128
	c12.6489258,6.9163208,16.968071,8.4345398,20.0531693,6.7476349c2.7765961-1.518219,1.8510666-3.036438-5.2446747-7.085022
	l-8.9468002-5.06073h38.2552795h37.9467697l-6.478714,3.8798981c-7.4042511,4.3859558-8.9468079,9.6153717-2.7765961,9.6153717
	c5.5531769,0,29.9254913-14.0013275,29.9254913-17.2064667c0-3.3738098-26.8403931-17.0377655-30.8510284-15.6882477
	c-4.9361572,1.6869049-3.7021179,4.554657,3.7021332,8.7719269l6.478714,3.8798828h-37.9467697H85.3029709l8.9468002-5.0607147
	c6.478714-3.7111969,8.0212708-5.566803,5.5531845-6.9163361C97.0263672,203.1482544,92.0902023,204.8351746,79.7497864,211.2454224
	z"/>
<path fill="#575FA8" d="M132.9911346,260.617981c4,4.0203552,6,8.894989,6,14.6239929c0,5.7289734-2,10.6203918-6,14.6742249
	c-4.0333405,4.053833-8.8833389,6.0807495-14.5500031,6.0807495c-5.7000046,0-10.5666656-2.0269165-14.5999985-6.0807495
	c-4.0000076-4.053833-6.0000076-8.9452515-6.0000076-14.6742249c0-5.7290039,2-10.6036377,6.0000076-14.6239929
	c4.0333328-4.053833,8.8999939-6.0807495,14.5999985-6.0807495
	C124.1077957,254.5372314,128.9577942,256.5641479,132.9911346,260.617981"/>
<path fill="#FFFFFF" d="M125.5161285,261.3717957v11.3574524l-2.1500015,2.1609497v-9.8498535l-9.7999954,9.9000854l-1.5-1.5578613
	l9.7999954-9.9000854h-9.7999954l2.1500015-2.1106873H125.5161285 M124.7661285,277.1516418l-9.7999954,9.8497925h9.7999954
	l-2.1500015,2.1609497h-11.2999954v-11.3574524l2.1500015-2.1609192v9.8497925l9.7999954-9.8497925L124.7661285,277.1516418"/>
<g>
	<path d="M149.6879425,264.2051086v8.0834961h-1.043457v-8.0834961H149.6879425z"/>
	<path d="M151.5966339,268.054718c0-0.5996094-0.0117188-1.0913086-0.0478516-1.5708008h0.9355469l0.0595703,0.9594727h0.0244141
		c0.2875977-0.5517578,0.9594727-1.0913086,1.9189453-1.0913086c0.8032227,0,2.0507813,0.4794922,2.0507813,2.4702148v3.4663086
		h-1.0556641v-3.3461914c0-0.9355469-0.3476563-1.7148438-1.3432617-1.7148438
		c-0.6953125,0-1.2353516,0.4916992-1.4150391,1.0791016c-0.0478516,0.1318359-0.0717773,0.3120117-0.0717773,0.4916992v3.4902344
		h-1.0556641V268.054718z"/>
	<path d="M159.4794464,264.816925v1.6669922h1.5112305v0.8032227h-1.5112305v3.1303711
		c0,0.7197266,0.2036133,1.1274414,0.7915039,1.1274414c0.2758789,0,0.4794922-0.0361328,0.6118164-0.0717773l0.0478516,0.7915039
		c-0.2041016,0.0839844-0.527832,0.144043-0.9355469,0.144043c-0.4916992,0-0.8876953-0.15625-1.1396484-0.4438477
		c-0.2998047-0.3120117-0.4077148-0.8276367-0.4077148-1.5112305v-3.1665039h-0.8994141v-0.8032227h0.8994141v-1.3916016
		L159.4794464,264.816925z"/>
	<path d="M162.695755,269.5781555c0.0239258,1.4272461,0.9350586,2.0146484,1.9907227,2.0146484
		c0.7553711,0,1.2114258-0.1318359,1.6069336-0.2998047l0.1801758,0.7558594
		c-0.3720703,0.1679688-1.0073242,0.3598633-1.9311523,0.3598633c-1.7871094,0-2.8544922-1.1757813-2.8544922-2.9267578
		s1.0317383-3.1298828,2.7226563-3.1298828c1.8950195,0,2.3989258,1.6669922,2.3989258,2.734375
		c0,0.2158203-0.0244141,0.3837891-0.0361328,0.4916992H162.695755z M165.7899933,268.8222961
		c0.0117188-0.6713867-0.2758789-1.7148438-1.4633789-1.7148438c-1.0673828,0-1.5351563,0.9833984-1.6191406,1.7148438H165.7899933z
		"/>
	<path d="M168.1195831,268.2949524c0-0.6835938-0.012207-1.2714844-0.0478516-1.8110352h0.9233398l0.0361328,1.1391602h0.0478516
		c0.2636719-0.7792969,0.8994141-1.2709961,1.6069336-1.2709961c0.1201172,0,0.2041016,0.0117188,0.300293,0.0356445v0.9956055
		c-0.1083984-0.0239258-0.2163086-0.0361328-0.3598633-0.0361328c-0.7436523,0-1.2714844,0.5639648-1.4155273,1.3554688
		c-0.0239258,0.144043-0.0478516,0.3115234-0.0478516,0.4916992v3.0942383h-1.043457V268.2949524z"/>
	<path d="M172.5111847,272.2886047v-5.0014648h-0.8154297v-0.8032227h0.8154297v-0.2758789
		c0-0.8154297,0.1801758-1.559082,0.671875-2.0268555c0.3955078-0.3837891,0.9233398-0.5400391,1.4150391-0.5400391
		c0.371582,0,0.6958008,0.0839844,0.8994141,0.1679688l-0.144043,0.815918
		c-0.1557617-0.0722656-0.371582-0.1323242-0.6713867-0.1323242c-0.8994141,0-1.1274414,0.7919922-1.1274414,1.6791992v0.3120117
		h1.4033203v0.8032227h-1.4033203v5.0014648H172.5111847z"/>
	<path d="M179.1215363,272.2886047l-0.0839844-0.7314453h-0.0361328c-0.3237305,0.4555664-0.9472656,0.8632813-1.7749023,0.8632813
		c-1.175293,0-1.7749023-0.8276367-1.7749023-1.6669922c0-1.4033203,1.2470703-2.1708984,3.4897461-2.1586914v-0.1201172
		c0-0.4794922-0.1318359-1.3432617-1.3193359-1.3432617c-0.5395508,0-1.1030273,0.1679688-1.5107422,0.4316406l-0.2402344-0.6953125
		c0.4799805-0.3120117,1.1757813-0.515625,1.9072266-0.515625c1.7749023,0,2.206543,1.2109375,2.206543,2.3745117v2.1708984
		c0,0.503418,0.0239258,0.9951172,0.0961914,1.3911133H179.1215363z M178.9657745,269.3262024
		c-1.1513672-0.0239258-2.4589844,0.1801758-2.4589844,1.3071289c0,0.6835938,0.4560547,1.0078125,0.9956055,1.0078125
		c0.7553711,0,1.2353516-0.4799805,1.4033203-0.9716797c0.0356445-0.1079102,0.0600586-0.2280273,0.0600586-0.3359375V269.3262024z"
		/>
	<path d="M185.8290558,272.0727844c-0.2758789,0.144043-0.8876953,0.3359375-1.6669922,0.3359375
		c-1.7509766,0-2.890625-1.1875-2.890625-2.9624023c0-1.7871094,1.2236328-3.0825195,3.1186523-3.0825195
		c0.6235352,0,1.175293,0.1557617,1.4628906,0.2998047l-0.2397461,0.8154297
		c-0.2519531-0.1435547-0.6474609-0.2753906-1.2231445-0.2753906c-1.331543,0-2.0512695,0.9833984-2.0512695,2.1943359
		c0,1.3432617,0.8637695,2.1708984,2.0151367,2.1708984c0.5996094,0,0.9956055-0.1557617,1.2954102-0.2875977
		L185.8290558,272.0727844z"/>
	<path d="M187.5834503,269.5781555c0.0239258,1.4272461,0.9350586,2.0146484,1.9907227,2.0146484
		c0.7553711,0,1.2114258-0.1318359,1.6069336-0.2998047l0.1801758,0.7558594
		c-0.3720703,0.1679688-1.0073242,0.3598633-1.9311523,0.3598633c-1.7871094,0-2.8544922-1.1757813-2.8544922-2.9267578
		s1.0317383-3.1298828,2.7226563-3.1298828c1.8950195,0,2.3989258,1.6669922,2.3989258,2.734375
		c0,0.2158203-0.0244141,0.3837891-0.0361328,0.4916992H187.5834503z M190.6776886,268.8222961
		c0.0117188-0.6713867-0.2758789-1.7148438-1.4633789-1.7148438c-1.0673828,0-1.5351563,0.9833984-1.6191406,1.7148438H190.6776886z
		"/>
	<path d="M192.8632355,271.2090149c0.3120117,0.2041016,0.8637695,0.4199219,1.3916016,0.4199219
		c0.7675781,0,1.1269531-0.3837891,1.1269531-0.8632813c0-0.5039063-0.2998047-0.7797852-1.0791016-1.0678711
		c-1.043457-0.371582-1.5351563-0.9472656-1.5351563-1.6430664c0-0.9350586,0.7553711-1.7026367,2.0029297-1.7026367
		c0.5874023,0,1.1035156,0.1674805,1.4272461,0.359375l-0.2641602,0.7675781
		c-0.2275391-0.1435547-0.6474609-0.3354492-1.1870117-0.3354492c-0.6240234,0-0.9716797,0.3598633-0.9716797,0.7915039
		c0,0.4794922,0.3476563,0.6953125,1.1035156,0.9833984c1.0073242,0.3837891,1.5229492,0.8876953,1.5229492,1.7509766
		c0,1.0195313-0.7915039,1.7392578-2.1708984,1.7392578c-0.6352539,0-1.2231445-0.15625-1.6308594-0.3959961
		L192.8632355,271.2090149z"/>
</g>
<g>
	<path d="M26.4306259,223.2890778c-0.3837891,0.1918945-1.1513672,0.3837891-2.1347656,0.3837891
		c-2.2788086,0-3.9941406-1.4394531-3.9941406-4.0898438c0-2.5307617,1.715332-4.2456055,4.2216797-4.2456055
		c1.0078125,0,1.6430664,0.2158203,1.9189453,0.3598633l-0.2519531,0.8515625
		c-0.3955078-0.1923828-0.9594727-0.3359375-1.6308594-0.3359375c-1.8950195,0-3.1542969,1.2114258-3.1542969,3.3339844
		c0,1.9790039,1.1391602,3.2504883,3.1064453,3.2504883c0.6357422,0,1.2832031-0.1323242,1.703125-0.3359375L26.4306259,223.2890778
		z"/>
	<path d="M32.826622,220.6025543c0,2.1464844-1.4868164,3.0820313-2.8901367,3.0820313
		c-1.5712891,0-2.7827148-1.1513672-2.7827148-2.9863281c0-1.9428711,1.2714844-3.0820313,2.878418-3.0820313
		C31.6996689,217.6162262,32.826622,218.8271637,32.826622,220.6025543z M28.2211533,220.6621246
		c0,1.2714844,0.7319336,2.230957,1.7631836,2.230957c1.0073242,0,1.7631836-0.9472656,1.7631836-2.2548828
		c0-0.9833984-0.4916992-2.2304688-1.7392578-2.2304688C28.7611923,218.4077301,28.2211533,219.5590973,28.2211533,220.6621246z"/>
	<path d="M34.1615829,219.5590973c0-0.6835938-0.012207-1.2714844-0.0478516-1.8110352h0.9233398l0.0361328,1.1391602h0.0478516
		c0.2636719-0.7792969,0.8994141-1.2709961,1.6069336-1.2709961c0.1201172,0,0.2041016,0.0117188,0.300293,0.0356445v0.9956055
		c-0.1083984-0.0239258-0.2163086-0.0361328-0.3598633-0.0361328c-0.7436523,0-1.2714844,0.5639648-1.4155273,1.3554688
		c-0.0239258,0.144043-0.0478516,0.3115234-0.0478516,0.4916992v3.0942383h-1.043457V219.5590973z"/>
	<path d="M38.1332626,219.5590973c0-0.6835938-0.012207-1.2714844-0.0478516-1.8110352h0.9233398l0.0361328,1.1391602h0.0478516
		c0.2636719-0.7792969,0.8994141-1.2709961,1.6069336-1.2709961c0.1201172,0,0.2041016,0.0117188,0.300293,0.0356445v0.9956055
		c-0.1083984-0.0239258-0.2163086-0.0361328-0.3598633-0.0361328c-0.7436523,0-1.2714844,0.5639648-1.4155273,1.3554688
		c-0.0239258,0.144043-0.0478516,0.3115234-0.0478516,0.4916992v3.0942383h-1.043457V219.5590973z"/>
	<path d="M47.1903915,220.6025543c0,2.1464844-1.4868164,3.0820313-2.8901367,3.0820313
		c-1.5712891,0-2.7827148-1.1513672-2.7827148-2.9863281c0-1.9428711,1.2714844-3.0820313,2.878418-3.0820313
		C46.0634384,217.6162262,47.1903915,218.8271637,47.1903915,220.6025543z M42.5849228,220.6621246
		c0,1.2714844,0.7319336,2.230957,1.7631836,2.230957c1.0073242,0,1.7631836-0.9472656,1.7631836-2.2548828
		c0-0.9833984-0.4916992-2.2304688-1.7392578-2.2304688C43.1249619,218.4077301,42.5849228,219.5590973,42.5849228,220.6621246z"/>
	<path d="M49.7006454,216.1167145c0.012207,0.3598633-0.2519531,0.6479492-0.6713867,0.6479492
		c-0.3720703,0-0.6357422-0.2880859-0.6357422-0.6479492c0-0.371582,0.2758789-0.659668,0.659668-0.659668
		C49.4486923,215.4570465,49.7006454,215.7451324,49.7006454,216.1167145z M48.5253525,223.5527496v-5.8046875h1.0556641v5.8046875
		H48.5253525z"/>
	<path d="M56.5863876,220.6025543c0,2.1464844-1.4868164,3.0820313-2.8901367,3.0820313
		c-1.5712891,0-2.7827148-1.1513672-2.7827148-2.9863281c0-1.9428711,1.2714844-3.0820313,2.878418-3.0820313
		C55.4594345,217.6162262,56.5863876,218.8271637,56.5863876,220.6025543z M51.9809189,220.6621246
		c0,1.2714844,0.7319336,2.230957,1.7631836,2.230957c1.0073242,0,1.7631836-0.9472656,1.7631836-2.2548828
		c0-0.9833984-0.4916992-2.2304688-1.7392578-2.2304688C52.5209579,218.4077301,51.9809189,219.5590973,51.9809189,220.6621246z"/>
	<path d="M57.7773056,222.4731598c0.3120117,0.2041016,0.8637695,0.4199219,1.3916016,0.4199219
		c0.7675781,0,1.1269531-0.3837891,1.1269531-0.8632813c0-0.5039063-0.2998047-0.7797852-1.0791016-1.0678711
		c-1.043457-0.371582-1.5351563-0.9472656-1.5351563-1.6430664c0-0.9350586,0.7553711-1.7026367,2.0029297-1.7026367
		c0.5874023,0,1.1035156,0.1674805,1.4272461,0.359375l-0.2641602,0.7675781
		c-0.2275391-0.1435547-0.6474609-0.3354492-1.1870117-0.3354492c-0.6240234,0-0.9716797,0.3598633-0.9716797,0.7915039
		c0,0.4794922,0.3476563,0.6953125,1.1035156,0.9833984c1.0073242,0.3837891,1.5229492,0.8876953,1.5229492,1.7509766
		c0,1.0195313-0.7915039,1.7392578-2.1708984,1.7392578c-0.6352539,0-1.2231445-0.15625-1.6308594-0.3959961L57.7773056,222.4731598
		z"/>
</g>
<g>
	<path d="M186.7816925,215.5649567c0.503418-0.0839844,1.1630859-0.1557617,2.0029297-0.1557617
		c1.03125,0,1.7871094,0.2397461,2.2666016,0.671875c0.4438477,0.3837891,0.7075195,0.9711914,0.7075195,1.690918
		c0,0.7314453-0.2158203,1.3071289-0.6235352,1.7270508c-0.5517578,0.5874023-1.4511719,0.8876953-2.4707031,0.8876953
		c-0.3120117,0-0.5996094-0.012207-0.8393555-0.0722656v3.2382813h-1.043457V215.5649567z M187.8251495,219.4629059
		c0.2275391,0.0600586,0.515625,0.0839844,0.8632813,0.0839844c1.2592773,0,2.0268555-0.6118164,2.0268555-1.7270508
		c0-1.0673828-0.7553711-1.5830078-1.9067383-1.5830078c-0.4560547,0-0.8037109,0.0361328-0.9833984,0.0839844V219.4629059z"/>
	<path d="M192.9374542,219.5590973c0-0.6835938-0.012207-1.2714844-0.0478516-1.8110352h0.9233398l0.0361328,1.1391602h0.0478516
		c0.2636719-0.7792969,0.8994141-1.2709961,1.6069336-1.2709961c0.1201172,0,0.2041016,0.0117188,0.300293,0.0356445v0.9956055
		c-0.1083984-0.0239258-0.2163086-0.0361328-0.3598633-0.0361328c-0.7436523,0-1.2714844,0.5639648-1.4155273,1.3554688
		c-0.0239258,0.144043-0.0478516,0.3115234-0.0478516,0.4916992v3.0942383h-1.043457V219.5590973z"/>
	<path d="M200.0155792,223.5527496l-0.0839844-0.7314453h-0.0361328c-0.3237305,0.4555664-0.9472656,0.8632813-1.7749023,0.8632813
		c-1.175293,0-1.7749023-0.8276367-1.7749023-1.6669922c0-1.4033203,1.2470703-2.1708984,3.4897461-2.1586914v-0.1201172
		c0-0.4794922-0.1318359-1.3432617-1.3193359-1.3432617c-0.5395508,0-1.1030273,0.1679688-1.5107422,0.4316406l-0.2402344-0.6953125
		c0.4799805-0.3120117,1.1757813-0.515625,1.9072266-0.515625c1.7749023,0,2.206543,1.2109375,2.206543,2.3745117v2.1708984
		c0,0.503418,0.0239258,0.9951172,0.0961914,1.3911133H200.0155792z M199.8598175,220.5903473
		c-1.1513672-0.0239258-2.4589844,0.1801758-2.4589844,1.3071289c0,0.6835938,0.4560547,1.0078125,0.9956055,1.0078125
		c0.7553711,0,1.2353516-0.4799805,1.4033203-0.9716797c0.0356445-0.1079102,0.0600586-0.2280273,0.0600586-0.3359375V220.5903473z"
		/>
	<path d="M207.58638,217.7480621c-0.0244141,0.4194336-0.0483398,0.887207-0.0483398,1.5952148v3.3701172
		c0,1.3310547-0.2636719,2.1464844-0.8271484,2.6503906c-0.5639648,0.527832-1.3793945,0.6958008-2.1108398,0.6958008
		c-0.6958008,0-1.4633789-0.1679688-1.9311523-0.4799805l0.2636719-0.8037109
		c0.3837891,0.2402344,0.9838867,0.4560547,1.703125,0.4560547c1.0795898,0,1.8710938-0.5639648,1.8710938-2.0268555v-0.6479492
		h-0.0239258c-0.3237305,0.5400391-0.9477539,0.9716797-1.847168,0.9716797c-1.4389648,0-2.4707031-1.2231445-2.4707031-2.8305664
		c0-1.9667969,1.2836914-3.0820313,2.6147461-3.0820313c1.0073242,0,1.559082,0.5273438,1.8110352,1.0073242h0.0239258
		l0.0478516-0.8754883H207.58638z M206.4945831,220.0385895c0-0.1796875-0.0117188-0.3359375-0.0595703-0.4794922
		c-0.1918945-0.6118164-0.7080078-1.1157227-1.4755859-1.1157227c-1.0073242,0-1.7270508,0.8515625-1.7270508,2.1948242
		c0,1.1396484,0.5756836,2.0869141,1.715332,2.0869141c0.6474609,0,1.2353516-0.4077148,1.4628906-1.0791016
		c0.0600586-0.1801758,0.0839844-0.3837891,0.0839844-0.5639648V220.0385895z"/>
	<path d="M212.5072784,223.5527496l-0.0839844-0.7314453h-0.0361328c-0.3237305,0.4555664-0.9472656,0.8632813-1.7749023,0.8632813
		c-1.175293,0-1.7749023-0.8276367-1.7749023-1.6669922c0-1.4033203,1.2470703-2.1708984,3.4897461-2.1586914v-0.1201172
		c0-0.4794922-0.1318359-1.3432617-1.3188477-1.3432617c-0.5400391,0-1.1035156,0.1679688-1.5112305,0.4316406l-0.2402344-0.6953125
		c0.4799805-0.3120117,1.175293-0.515625,1.9072266-0.515625c1.7749023,0,2.206543,1.2109375,2.206543,2.3745117v2.1708984
		c0,0.503418,0.0239258,0.9951172,0.0961914,1.3911133H212.5072784z M212.3510284,220.5903473
		c-1.1513672-0.0239258-2.4584961,0.1801758-2.4584961,1.3071289c0,0.6835938,0.4560547,1.0078125,0.9956055,1.0078125
		c0.7553711,0,1.2353516-0.4799805,1.4033203-0.9716797c0.0356445-0.1079102,0.0595703-0.2280273,0.0595703-0.3359375V220.5903473z"
		/>
	<path d="M215.0771027,215.0376129h1.0556641v8.5151367h-1.0556641V215.0376129z"/>
</g>
<g>
	<path d="M105.4486923,206.3105621h1.043457v7.2080078h3.4541016v0.8754883h-4.4975586V206.3105621z"/>
	<path d="M112.2514267,206.9580231c0.012207,0.3598633-0.2519531,0.6479492-0.6713867,0.6479492
		c-0.3720703,0-0.6357422-0.2880859-0.6357422-0.6479492c0-0.371582,0.2758789-0.659668,0.659668-0.659668
		C111.9994736,206.2983551,112.2514267,206.586441,112.2514267,206.9580231z M111.0761337,214.3940582v-5.8046875h1.0556641
		v5.8046875H111.0761337z"/>
	<path d="M113.8842392,210.1601715c0-0.5996094-0.0117188-1.0913086-0.0478516-1.5708008h0.9355469l0.0595703,0.9594727h0.0244141
		c0.2875977-0.5517578,0.9594727-1.0913086,1.9189453-1.0913086c0.8032227,0,2.0507813,0.4794922,2.0507813,2.4702148v3.4663086
		h-1.0556641v-3.3461914c0-0.9355469-0.3476563-1.7148438-1.3432617-1.7148438
		c-0.6953125,0-1.2353516,0.4916992-1.4150391,1.0791016c-0.0478516,0.1318359-0.0717773,0.3120117-0.0717773,0.4916992v3.4902344
		h-1.0556641V210.1601715z"/>
	<path d="M120.5439072,205.8789215h1.0556641v3.621582h0.0239258c0.1679688-0.2998047,0.4316406-0.5634766,0.7553711-0.7431641
		c0.3120117-0.1801758,0.6835938-0.2998047,1.0795898-0.2998047c0.7792969,0,2.0268555,0.4794922,2.0268555,2.4824219v3.4541016
		h-1.0556641v-3.3339844c0-0.9355469-0.3476563-1.7270508-1.3432617-1.7270508
		c-0.6835938,0-1.2231445,0.4794922-1.4150391,1.0551758c-0.0600586,0.144043-0.0717773,0.2998047-0.0717773,0.5039063v3.5019531
		h-1.0556641V205.8789215z"/>
	<path d="M130.4184113,214.3940582l-0.0839844-0.7314453h-0.0361328c-0.3237305,0.4555664-0.9472656,0.8632813-1.7749023,0.8632813
		c-1.1752853,0-1.7748947-0.8276367-1.7748947-1.6669922c0-1.4033203,1.2470703-2.1708984,3.4897385-2.1586914v-0.1201172
		c0-0.4794922-0.1318359-1.3432617-1.3188477-1.3432617c-0.5400391,0-1.103508,0.1679688-1.5112228,0.4316406l-0.2402344-0.6953125
		c0.4799805-0.3120117,1.1752853-0.515625,1.9072189-0.515625c1.7749023,0,2.206543,1.2109375,2.206543,2.3745117v2.1708984
		c0,0.503418,0.0239258,0.9951172,0.0961914,1.3911133H130.4184113z M130.2621613,211.4316559
		c-1.1513672-0.0239258-2.4584885,0.1801758-2.4584885,1.3071289c0,0.6835938,0.4560471,1.0078125,0.9955978,1.0078125
		c0.7553711,0,1.2353516-0.4799805,1.4033203-0.9716797c0.0356445-0.1079102,0.0595703-0.2280273,0.0595703-0.3359375V211.4316559z"
		/>
	<path d="M135.1962433,214.3940582v-0.6474609l0.8276367-0.8037109c1.9912109-1.8950195,2.890625-2.9023438,2.9023438-4.0776367
		c0-0.7915039-0.3837891-1.5234375-1.546875-1.5234375c-0.7080078,0-1.2954102,0.3598633-1.6552734,0.659668l-0.3359375-0.7436523
		c0.5400391-0.4555664,1.3076172-0.7915039,2.2070313-0.7915039c1.6791992,0,2.3867188,1.1513672,2.3867188,2.2666016
		c0,1.4394531-1.043457,2.6030273-2.6865234,4.1860352l-0.6240234,0.5756836v0.0239258h3.5024414v0.8754883H135.1962433z"/>
</g>
<g>
	<path d="M152.8300323,319.5903625h-3.1420898v2.9145508h3.5019531v0.8754883h-4.5454102v-8.0834961h4.3652344v0.8754883h-3.3217773
		v2.5546875h3.1420898V319.5903625z"/>
	<path d="M154.3681183,322.3008118c0.3120117,0.2041016,0.8637695,0.4199219,1.3916016,0.4199219
		c0.7675781,0,1.1269531-0.3837891,1.1269531-0.8632813c0-0.5039063-0.2998047-0.7797852-1.0791016-1.0673828
		c-1.043457-0.3720703-1.5351563-0.9477539-1.5351563-1.6435547c0-0.9350586,0.7553711-1.7026367,2.0029297-1.7026367
		c0.5874023,0,1.1035156,0.1674805,1.4272461,0.359375l-0.2641602,0.7675781
		c-0.2275391-0.1435547-0.6474609-0.3354492-1.1870117-0.3354492c-0.6240234,0-0.9716797,0.3598633-0.9716797,0.7915039
		c0,0.4794922,0.3476563,0.6953125,1.1035156,0.9833984c1.0073242,0.3837891,1.5229492,0.8876953,1.5229492,1.7509766
		c0,1.0195313-0.7915039,1.7392578-2.1708984,1.7392578c-0.6352539,0-1.2231445-0.15625-1.6308594-0.3959961
		L154.3681183,322.3008118z"/>
	<path d="M160.5355988,315.9087219v1.6669922h1.5112305v0.8032227h-1.5112305v3.1303711
		c0,0.7197266,0.2036133,1.1274414,0.7915039,1.1274414c0.2758789,0,0.4794922-0.0361328,0.6113281-0.0717773l0.0483398,0.7915039
		c-0.2041016,0.0839844-0.527832,0.144043-0.9355469,0.144043c-0.4916992,0-0.8876953-0.15625-1.1396484-0.4438477
		c-0.2998047-0.3120117-0.4077148-0.8276367-0.4077148-1.5112305v-3.1665039h-0.8994141v-0.8032227h0.8994141v-1.3911133
		L160.5355988,315.9087219z"/>
	<path d="M166.4501495,323.3804016l-0.0839844-0.7314453h-0.0361328c-0.3237305,0.4555664-0.9472656,0.8632813-1.7749023,0.8632813
		c-1.175293,0-1.7749023-0.8276367-1.7749023-1.6669922c0-1.4033203,1.2470703-2.1708984,3.4897461-2.1586914v-0.1201172
		c0-0.4794922-0.1318359-1.3432617-1.3188477-1.3432617c-0.5400391,0-1.1035156,0.1679688-1.5112305,0.4316406l-0.2402344-0.6953125
		c0.4799805-0.3120117,1.175293-0.515625,1.9072266-0.515625c1.7749023,0,2.206543,1.2109375,2.206543,2.3745117v2.1708984
		c0,0.503418,0.0239258,0.9951172,0.0961914,1.3911133H166.4501495z M166.2938995,320.4179993
		c-1.1513672-0.0239258-2.4584961,0.1796875-2.4584961,1.3071289c0,0.6835938,0.4560547,1.0078125,0.9956055,1.0078125
		c0.7553711,0,1.2353516-0.4799805,1.4033203-0.9716797c0.0356445-0.1079102,0.0595703-0.2280273,0.0595703-0.3359375V320.4179993z"
		/>
	<path d="M173.1576691,323.1645813c-0.2519531,0.1318359-0.8037109,0.3120117-1.4990234,0.3359375l-0.3120117,0.4794922
		c0.4438477,0.0600586,0.8398438,0.3720703,0.8398438,0.8276367c0,0.7075195-0.5878906,0.9716797-1.2475586,0.9716797
		c-0.2998047,0-0.6118164-0.0839844-0.8154297-0.2041016l0.1796875-0.515625
		c0.1918945,0.1196289,0.4321289,0.1796875,0.6479492,0.1796875c0.2636719,0,0.515625-0.0957031,0.515625-0.3837891
		c-0.012207-0.3115234-0.3720703-0.4555664-0.9355469-0.503418l0.5039063-0.8754883
		c-1.4873047-0.1923828-2.4350586-1.3193359-2.4350586-2.9384766c0-1.7871094,1.2236328-3.0825195,3.1186523-3.0825195
		c0.6235352,0,1.175293,0.1557617,1.4628906,0.2998047l-0.2397461,0.8154297
		c-0.2519531-0.1435547-0.6474609-0.2758789-1.2231445-0.2758789c-1.331543,0-2.0512695,0.9838867-2.0512695,2.1948242
		c0,1.3432617,0.8637695,2.1708984,2.0151367,2.1708984c0.5996094,0,0.9956055-0.1557617,1.2954102-0.2875977
		L173.1576691,323.1645813z"/>
	<path d="M179.5771027,320.4302063c0,2.1464844-1.4868164,3.0820313-2.8901367,3.0820313
		c-1.5712891,0-2.7827148-1.1513672-2.7827148-2.9863281c0-1.9428711,1.2714844-3.0820313,2.878418-3.0820313
		C178.4501495,317.4438782,179.5771027,318.6548157,179.5771027,320.4302063z M174.9716339,320.4897766
		c0,1.2714844,0.7319336,2.230957,1.7631836,2.230957c1.0073242,0,1.7631836-0.9472656,1.7631836-2.2548828
		c0-0.9833984-0.4916992-2.2304688-1.7392578-2.2304688C175.511673,318.2353821,174.9716339,319.3867493,174.9716339,320.4897766z
		 M175.2597198,316.5801086c-0.0239258-0.7792969,0.2998047-1.2470703,0.8154297-1.2470703
		c0.2641602,0,0.4677734,0.1079102,0.7436523,0.2636719c0.1918945,0.1079102,0.3598633,0.2041016,0.5039063,0.2041016
		c0.1918945,0,0.3115234-0.1083984,0.3354492-0.5161133h0.5639648c0.0117188,0.8037109-0.2641602,1.2114258-0.8276367,1.2114258
		c-0.2519531,0-0.4794922-0.1079102-0.7314453-0.2397461c-0.2402344-0.144043-0.3720703-0.2158203-0.515625-0.2158203
		c-0.1918945,0-0.2880859,0.2036133-0.3120117,0.5395508H175.2597198z"/>
	<path d="M181.4999542,320.6699524c0.0239258,1.4272461,0.9355469,2.0146484,1.9907227,2.0146484
		c0.7553711,0,1.2114258-0.1318359,1.6069336-0.2998047l0.1801758,0.7558594
		c-0.3720703,0.1679688-1.0073242,0.3598633-1.9311523,0.3598633c-1.7871094,0-2.8544922-1.175293-2.8544922-2.9267578
		c0-1.7509766,1.0317383-3.1298828,2.7226563-3.1298828c1.8950195,0,2.3989258,1.6669922,2.3989258,2.734375
		c0,0.2158203-0.0244141,0.3837891-0.0361328,0.4916992H181.4999542z M184.5941925,319.914093
		c0.0117188-0.6713867-0.2758789-1.7148438-1.4633789-1.7148438c-1.0673828,0-1.5351563,0.9833984-1.6191406,1.7148438H184.5941925z
		"/>
	<path d="M186.7797394,322.3008118c0.3120117,0.2041016,0.8637695,0.4199219,1.3916016,0.4199219
		c0.7675781,0,1.1269531-0.3837891,1.1269531-0.8632813c0-0.5039063-0.2998047-0.7797852-1.0791016-1.0673828
		c-1.043457-0.3720703-1.5351563-0.9477539-1.5351563-1.6435547c0-0.9350586,0.7553711-1.7026367,2.0029297-1.7026367
		c0.5874023,0,1.1030273,0.1674805,1.4272461,0.359375l-0.2641602,0.7675781
		c-0.2275391-0.1435547-0.6474609-0.3354492-1.1870117-0.3354492c-0.6240234,0-0.9716797,0.3598633-0.9716797,0.7915039
		c0,0.4794922,0.3476563,0.6953125,1.1035156,0.9833984c1.0073242,0.3837891,1.5229492,0.8876953,1.5229492,1.7509766
		c0,1.0195313-0.7915039,1.7392578-2.1708984,1.7392578c-0.6352539,0-1.2231445-0.15625-1.6308594-0.3959961
		L186.7797394,322.3008118z"/>
</g>
<path fill="#706F6F" d="M132.9911346,308.7315674c4,4.0203552,6,8.8950195,6,14.6239929s-2,10.6203918-6,14.6742249
	c-4.0333405,4.053833-8.8833389,6.0807495-14.5500031,6.0807495c-5.7000046,0-10.5666656-2.0269165-14.5999985-6.0807495
	c-4.0000076-4.053833-6.0000076-8.9452515-6.0000076-14.6742249s2-10.6036377,6.0000076-14.6239929
	c4.0333328-4.053833,8.8999939-6.0807495,14.5999985-6.0807495
	C124.1077957,302.6508179,128.9577942,304.6777344,132.9911346,308.7315674"/>
<g>
	<path fill="#575FA8" d="M56.6410942,108.628685c-6.7019463-7.0508194-9.9219971-15.470459-9.6601524-25.258934
		c0.2618408-9.7884674,3.9282532-18.0550079,10.9992294-24.7996407c7.1283569-6.7430878,15.5699081-9.9859123,25.3246384-9.7284698
		c9.8121185,0.2589531,18.0970764,3.9432144,24.8548737,11.052784c6.7004166,7.108078,9.9197006,15.5563431,9.6578598,25.3448105
		s-3.9274902,18.0263901-10.996933,24.713768c-7.1283569,6.743103-15.5985947,9.9851685-25.4107132,9.7262115
		C71.655159,119.4217758,63.3988914,115.738266,56.6410942,108.628685"/>
	<path d="M66.0312119,118.5302887c0.5234375,0.1035156,1.1904297,0.2807617,2.0019531,0.6035156
		c0.9960938,0.3964844,1.6220703,0.9428711,1.9013672,1.5893555c0.2626953,0.5805664,0.265625,1.3105469-0.0429688,2.0795898
		c-0.3154297,0.7827148-0.7714844,1.3149414-1.3447266,1.6069336c-0.7851563,0.4165039-1.7832031,0.3911133-2.7675781-0.0004883
		c-0.3007813-0.1201172-0.5742188-0.2436523-0.7802734-0.3999023l-1.390625,3.4624023l-1.0068359-0.4008789L66.0312119,118.5302887z
		 M65.3651962,123.0986481c0.1943359,0.1518555,0.4619141,0.2885742,0.7978516,0.421875
		c1.2167969,0.484375,2.2216797,0.1254883,2.6992188-1.0673828c0.4580078-1.1416016-0.0498047-1.9829102-1.1611328-2.4257813
		c-0.4404297-0.175293-0.7919922-0.2705078-0.9873047-0.2885742L65.3651962,123.0986481z"/>
	<path d="M70.8437119,125.1377106c0.1933594-0.7636719,0.3476563-1.4233398,0.4628906-2.0361328l0.9335938,0.2270508
		l-0.2861328,1.2827148l0.0488281,0.0112305c0.4863281-0.8061523,1.2685547-1.199707,1.9833984-1.0258789
		c0.1201172,0.0292969,0.2011719,0.0634766,0.2919922,0.1137695l-0.28125,1.1123047
		c-0.1015625-0.0527344-0.2080078-0.0927734-0.3525391-0.128418c-0.7519531-0.1826172-1.4453125,0.3178711-1.8144531,1.1674805
		c-0.0654297,0.1542969-0.1376953,0.3364258-0.1875,0.5375977l-0.8769531,3.4580078l-1.0537109-0.2563477L70.8437119,125.1377106z"
		/>
	<path d="M78.0507431,131.0576324l0.0126953-0.8466797l-0.0371094-0.0039063
		c-0.3964844,0.4848633-1.0966797,0.8803711-1.9511719,0.7856445c-1.2138672-0.1333008-1.7216797-1.1484375-1.6064453-2.1098633
		c0.1914063-1.6054688,1.5849609-2.3417969,3.8994141-2.0732422l0.0166016-0.1367188
		c0.0654297-0.5488281,0.046875-1.5522461-1.1806641-1.6875c-0.5556641-0.0615234-1.1611328,0.0668945-1.6191406,0.3222656
		l-0.1523438-0.8237305c0.5380859-0.3022461,1.2841797-0.456543,2.0400391-0.3730469
		c1.8330078,0.2016602,2.1132813,1.637207,1.9560547,2.96875l-0.296875,2.4838867
		c-0.0673828,0.5766602-0.1103516,1.1425781-0.0888672,1.6035156L78.0507431,131.0576324z M78.2929306,127.6499176
		c-1.1855469-0.1586914-2.5644531-0.0737305-2.7177734,1.2163086c-0.0927734,0.7817383,0.3339844,1.2045898,0.8916016,1.2661133
		c0.7792969,0.0859375,1.3408203-0.4086914,1.5810547-0.9521484c0.0517578-0.1191406,0.0927734-0.2539063,0.1083984-0.3774414
		L78.2929306,127.6499176z"/>
	<path d="M86.9696884,124.3886871c-0.0019531,0.4848633-0.0009766,1.0244141,0.0380859,1.8383789l0.1884766,3.8779297
		c0.0742188,1.5317383-0.1542969,2.4819336-0.7119141,3.0874023c-0.5556641,0.6328125-1.3935547,0.862793-2.1533203,0.8955078
		c-0.7226563,0.0317383-1.5283203-0.1269531-2.0322266-0.4648438l0.2285156-0.9365234
		c0.4130859,0.2587891,1.0478516,0.4799805,1.7949219,0.4477539c1.1210938-0.0488281,1.9121094-0.7329102,1.8300781-2.4169922
		l-0.0361328-0.7456055l-0.0253906,0.0014648c-0.3056641,0.6357422-0.9296875,1.1601563-1.8632813,1.2011719
		c-1.4951172,0.0649414-2.6337891-1.2958984-2.7236328-3.1455078c-0.109375-2.2636719,1.1611328-3.6049805,2.5429688-3.6650391
		c1.046875-0.0454102,1.6484375,0.5371094,1.9365234,1.0776367l0.0253906-0.0004883l0.0009766-1.0107422L86.9696884,124.3886871z
		 M85.963829,127.074234c-0.0107422-0.206543-0.0322266-0.3857422-0.0888672-0.5493164
		c-0.234375-0.6953125-0.7978516-1.2514648-1.5947266-1.2167969c-1.0458984,0.0458984-1.7470703,1.0576172-1.671875,2.6040039
		c0.0634766,1.3105469,0.7148438,2.375,1.8984375,2.3237305c0.671875-0.0292969,1.2587891-0.5253906,1.4589844-1.3085938
		c0.0527344-0.2094727,0.0654297-0.4458008,0.0556641-0.6518555L85.963829,127.074234z"/>
	<path d="M93.7567978,129.9384918l-0.2675781-0.8051758l-0.0371094,0.0078125
		c-0.2148438,0.5825195-0.7480469,1.175293-1.5908203,1.3535156c-1.1972656,0.2524414-2.0117188-0.5498047-2.2207031-1.4946289
		c-0.3496094-1.5791016,0.7294922-2.7109375,3.015625-3.1796875l-0.03125-0.1347656
		c-0.1181641-0.5395508-0.4677734-1.4829102-1.6757813-1.2280273c-0.5488281,0.1162109-1.0810547,0.4262695-1.4296875,0.8110352
		l-0.4179688-0.7314453c0.4111328-0.4536133,1.0683594-0.8330078,1.8125-0.9902344
		c1.8056641-0.3813477,2.546875,0.8891602,2.8359375,2.1982422l0.5390625,2.4423828
		c0.1259766,0.5668945,0.2724609,1.1147461,0.4443359,1.5449219L93.7567978,129.9384918z M92.86129,126.6391754
		c-1.1767578,0.2202148-2.4560547,0.7304688-2.1767578,1.9990234c0.1699219,0.7695313,0.7138672,1.0361328,1.2636719,0.9199219
		c0.7695313-0.1621094,1.1386719-0.8056641,1.1865234-1.3950195c0.0097656-0.1289063,0.0039063-0.2695313-0.0214844-0.390625
		L92.86129,126.6391754z"/>
	<path d="M94.0790634,119.6445465l1.0361328-0.3569336l3.2207031,9.2646484l-1.0361328,0.3569336L94.0790634,119.6445465z"/>
</g>
<path fill="#FFFFFF" d="M94.1668396,65.4556885v16.8536758l-3.5634308,3.2066879V70.8995819L74.3608017,85.5906143
	l-2.4861069-2.3117828l16.2426071-14.6910477H71.8746948l3.5634308-3.1320953H94.1668396 M92.9237823,88.8718796
	L76.6811829,103.488327h16.2425995l-3.5634308,3.2066879h-18.728714V89.8413315l3.5634308-3.2066727v14.6164551
	l16.2425995-14.6164551L92.9237823,88.8718796"/>
<g>
	<path fill="#706F6F" d="M188.7616119,94.695015c-1.7201385-7.5901413-0.494339-14.670105,3.6774139-21.2398987
		c4.1717529-6.5697861,10.0574341-10.689209,17.657074-12.3582611c7.6383514-1.6442032,14.7496338-0.3556442,21.3338623,3.8656769
		c6.6229401,4.2461548,10.8016663,10.1959229,12.5361481,17.8492966c1.6957397,7.6285629,0.4577484,14.7277451-3.7140045,21.2975311
		c-4.1717529,6.5697937-10.0452423,10.6700058-17.6204681,12.3006287
		c-7.6383667,1.6442108-14.7690125,0.3432388-21.3919678-3.902916
		C194.6554413,108.2857513,190.4960938,102.3483963,188.7616119,94.695015"/>
	<path d="M196.7636261,111.8842926c0.4570313,0.1982422,1.0537109,0.5585938,1.5878906,0.9487305
		c0.8271484,0.6035156,1.2412109,1.159668,1.34375,1.8037109c0.0878906,0.5131836-0.0712891,1.0849609-0.4433594,1.5927734
		c-0.6367188,0.8681641-1.5566406,1.0800781-2.3603516,0.8530273l-0.0214844,0.0288086
		c0.3339844,0.5136719,0.2666016,1.1835938-0.0908203,1.9702148c-0.4765625,1.0600586-0.7978516,1.7988281-0.8583984,2.1430664
		l-0.8017578-0.5849609c0.0371094-0.2568359,0.3173828-0.9204102,0.7490234-1.8632813
		c0.4873047-1.0371094,0.4160156-1.612793-0.2646484-2.1547852l-0.7304688-0.5327148l-2.0878906,2.8486328l-0.7744141-0.5654297
		L196.7636261,111.8842926z M195.3446808,115.4453278l0.7919922,0.5776367
		c0.8291016,0.6040039,1.71875,0.4897461,2.2685547-0.2607422c0.6220703-0.8491211,0.3320313-1.6293945-0.4794922-2.2363281
		c-0.3730469-0.2729492-0.6699219-0.4291992-0.8222656-0.480957L195.3446808,115.4453278z"/>
	<path d="M200.7724152,123.7876129l0.2509766-0.6992188l-0.0302734-0.0151367
		c-0.4658203,0.2822266-1.1572266,0.3989258-1.8388672,0.0610352c-0.9667969-0.4785156-1.0996094-1.4750977-0.7333984-2.2387695
		c0.6123047-1.2753906,1.9755859-1.4648438,3.8173828-0.5400391l0.0517578-0.1088867
		c0.2089844-0.4360352,0.4775391-1.2744141-0.4990234-1.7587891c-0.4453125-0.2202148-0.9824219-0.2973633-1.4335938-0.2236328
		l0.1054688-0.7304688c0.5332031-0.0874023,1.1933594,0.0107422,1.7958984,0.3085938
		c1.4619141,0.7241211,1.2880859,2.0009766,0.7802734,3.0585938l-0.9472656,1.9736328
		c-0.2197266,0.4584961-0.4150391,0.9155273-0.5283203,1.3037109L200.7724152,123.7876129z M201.9374542,121.0302887
		c-0.9375-0.4907227-2.1025391-0.8378906-2.5947266,0.1865234c-0.2988281,0.621582-0.0654297,1.1015625,0.3798828,1.3212891
		c0.6220703,0.3085938,1.2265625,0.0683594,1.5791016-0.3105469c0.0771484-0.0834961,0.1484375-0.1831055,0.1962891-0.28125
		L201.9374542,121.0302887z"/>
	<path d="M205.4931183,121.3188629c0.1279297-0.5908203,0.2207031-1.078125,0.2910156-1.5581055l0.828125,0.1870117
		l-0.1542969,0.9316406l0.0322266,0.0073242c0.4072266-0.4785156,1.0009766-0.8774414,1.8603516-0.6826172
		c0.7099609,0.1601563,1.1474609,0.7543945,1.2275391,1.4794922l0.0214844,0.0048828
		c0.2294922-0.2832031,0.4882813-0.4853516,0.7402344-0.6137695c0.3691406-0.1899414,0.7441406-0.253418,1.2382813-0.1420898
		c0.6884766,0.1552734,1.6035156,0.8828125,1.1757813,2.8691406l-0.7246094,3.3701172l-0.9267578-0.2089844l0.6982422-3.2402344
		c0.2373047-1.0991211,0.0136719-1.84375-0.7490234-2.0161133c-0.5380859-0.121582-1.0527344,0.2207031-1.3232422,0.6928711
		c-0.0742188,0.1318359-0.1464844,0.3139648-0.1875,0.5029297l-0.7617188,3.5356445l-0.9248047-0.2094727l0.7373047-3.4287109
		c0.1962891-0.9106445-0.0253906-1.6542969-0.7460938-1.8173828c-0.5927734-0.1337891-1.1347656,0.2890625-1.3974609,0.7753906
		c-0.0869141,0.1416016-0.1464844,0.3134766-0.1855469,0.4912109l-0.7431641,3.4521484l-0.9248047-0.2080078
		L205.4931183,121.3188629z"/>
	<path d="M218.3534698,127.1850739l-0.09375-0.7358398l-0.0332031,0.0004883
		c-0.2861328,0.4663086-0.8505859,0.8901367-1.609375,0.9077148c-1.0800781,0.0239258-1.6513672-0.7978516-1.671875-1.6445313
		c-0.0332031-1.4150391,1.0957031-2.2143555,3.1552734-2.2485352l-0.0029297-0.1206055
		c-0.0107422-0.4838867-0.1533203-1.3520508-1.2441406-1.3276367c-0.4951172,0.0112305-1.0087891,0.1918945-1.3769531,0.4672852
		l-0.2373047-0.6967773c0.4326172-0.324707,1.0673828-0.5449219,1.7392578-0.559082
		c1.6308594-0.0366211,2.0556641,1.1757813,2.0839844,2.3486328l0.0517578,2.1884766
		c0.0117188,0.5078125,0.0458984,1.003418,0.1210938,1.4003906L218.3534698,127.1850739z M218.1396027,124.2016754
		c-1.0576172-0.0009766-2.2529297,0.2319336-2.2265625,1.3681641c0.0166016,0.6894531,0.4423828,1.0063477,0.9375,0.9956055
		c0.6953125-0.015625,1.1240234-0.5087891,1.2666016-1.0078125c0.0302734-0.1103516,0.0488281-0.2319336,0.046875-0.340332
		L218.1396027,124.2016754z"/>
	<path d="M220.3544464,118.367691l0.9599609-0.1411133l1.2802734,8.4887695l-0.9599609,0.1411133L220.3544464,118.367691z"/>
	<path d="M222.7724152,118.0332184l0.9316406-0.2651367l1.046875,3.4995117l0.0214844-0.0058594
		c0.0615234-0.3320313,0.2177734-0.6533203,0.4521484-0.9082031c0.2226563-0.2524414,0.5175781-0.4619141,0.8671875-0.5615234
		c0.6884766-0.1953125,1.9287109-0.0458984,2.5078125,1.8896484l0.9990234,3.3369141l-0.9335938,0.2646484l-0.9638672-3.2207031
		c-0.2695313-0.9033203-0.8056641-1.5810547-1.6845703-1.3310547c-0.6044922,0.171875-0.9423828,0.7709961-0.9453125,1.3759766
		c-0.0117188,0.1538086,0.0224609,0.3071289,0.0810547,0.5039063l1.0136719,3.3842773l-0.9326172,0.2651367L222.7724152,118.0332184
		z"/>
	<path d="M235.004837,122.5883942l-0.4072266-0.6220703l-0.0292969,0.0151367
		c-0.0556641,0.5419922-0.3798828,1.1635742-1.0595703,1.5039063c-0.9677734,0.4829102-1.8427734-0.0126953-2.2294922-0.7651367
		c-0.6484375-1.2578125,0.0234375-2.4594727,1.8720703-3.3706055l-0.0556641-0.1079102
		c-0.2216797-0.4296875-0.7285156-1.1499023-1.7041016-0.6616211c-0.4443359,0.2216797-0.8300781,0.6040039-1.0429688,1.0083008
		l-0.5185547-0.5249023c0.2509766-0.4775391,0.7275391-0.9458008,1.3291016-1.2470703
		c1.4589844-0.7294922,2.3740234,0.1796875,2.9111328,1.222168l1.0029297,1.9472656
		c0.2314453,0.4511719,0.4785156,0.8823242,0.7207031,1.2075195L235.004837,122.5883942z M233.5097198,119.996109
		c-0.9580078,0.4516602-1.9394531,1.171875-1.4179688,2.1826172c0.3154297,0.6132813,0.8388672,0.7163086,1.2832031,0.4941406
		c0.6210938-0.3105469,0.7929688-0.9384766,0.7050781-1.4482422c-0.0195313-0.1113281-0.0556641-0.2285156-0.1054688-0.3251953
		L233.5097198,119.996109z"/>
</g>
<g>
</g>
<g>
</g>
<g>
</g>
<g>
</g>
<g>
</g>
<g>
</g>
</svg>
